<svg xmlns="http://www.w3.org/2000/svg" width="37.95" height="44.416" viewBox="0 0 37.95 44.416"><g transform="translate(-1662.05 -475.498)"><path d="M22.523.992A1.586,1.586,0,0,1,24.1,2.59l.012,1.6h4.744a1.585,1.585,0,1,1,0,3.171H24.127l.019,3.171H36.779V1.017H39.95V29.554H36.779V20.042H22.864a1.586,1.586,0,0,1-.514,0H16.269a1.564,1.564,0,0,0-1.585,1.585v4.756h1.585a1.585,1.585,0,1,1,0,3.171H3.586a1.585,1.585,0,1,1,0-3.171H5.171V21.627a11.122,11.122,0,0,1,11.1-11.1h4.707l-.019-3.171H16.17a1.585,1.585,0,1,1,0-3.171h4.769l-.012-1.573a1.586,1.586,0,0,1,1.6-1.623ZM36.779,13.7H24.2v3.171H36.779Zm-15.786,0H16.269a7.9,7.9,0,0,0-7.927,7.927v4.756h3.171V21.627a4.78,4.78,0,0,1,4.756-4.756h4.744Z" transform="translate(1660.05 474.506)" fill="#392c23"/><path d="M9.828,31.461l1.319,1.963s.821,1.227,1.647,2.682a24.7,24.7,0,0,1,1.164,2.279,5.529,5.529,0,0,1,.626,2.353,4.757,4.757,0,0,1-9.512,0A5.529,5.529,0,0,1,5.7,38.385a24.7,24.7,0,0,1,1.164-2.279c.827-1.455,1.647-2.682,1.647-2.682Zm0,5.877c-.1.171-.1.154-.2.334-.379.667-.754,1.376-1.016,1.976a9.916,9.916,0,0,0-.365,1.09,1.588,1.588,0,0,0,3.171,0,9.915,9.915,0,0,0-.365-1.09c-.261-.6-.636-1.308-1.016-1.976C9.93,37.493,9.929,37.509,9.828,37.338Z" transform="translate(1660.05 474.506)" fill="#3ec4b5"/></g></svg>