<svg xmlns="http://www.w3.org/2000/svg" width="48.117" height="44.416" viewBox="0 0 48.117 44.416"><g transform="translate(-504.883 -471.498)"><path d="M1,27.909,5.063,46.416H19.145l4.063-18.506H19.42L16.167,42.714H8.041L4.788,27.909Z" transform="translate(503.883 469.498)" fill="#3ec4b5"/><path d="M39.864,2a5.552,5.552,0,1,0,5.552,5.552A5.58,5.58,0,0,0,39.864,2Zm0,11.1h-3.7A5.568,5.568,0,0,0,31.6,15.489l-.014.014c-.15.221-.07.122-.1.173s-.073.118-.123.2c-.1.168-.242.4-.4.672-.326.551-.753,1.275-1.178,2l-1.157,1.959H23.208v3.7h6.477a1.851,1.851,0,0,0,1.6-.911s.835-1.424,1.684-2.863c.425-.72.854-1.447,1.178-2,.162-.274.3-.5.4-.665l.108-.181a1.834,1.834,0,0,1,1.511-.788h7.4a1.826,1.826,0,0,1,1.851,1.851v8.95l-3.159,3.159a1.851,1.851,0,0,0-.542,1.308V46.416h3.7V32.839l3.159-3.159a1.851,1.851,0,0,0,.542-1.308V18.656A5.58,5.58,0,0,0,43.565,13.1Zm0-7.4a1.851,1.851,0,1,1-1.851,1.851A1.823,1.823,0,0,1,39.864,5.7ZM34.312,31.61V46.416h3.7V31.61Z" transform="translate(503.883 469.498)" fill="#392c23"/><path d="M17.656,20.506a1.851,1.851,0,1,0,1.851,1.851A1.851,1.851,0,0,0,17.656,20.506Zm-7.4,7.4A1.851,1.851,0,1,0,12.1,29.76,1.851,1.851,0,0,0,10.253,27.909Zm3.7,7.4a1.851,1.851,0,1,0,1.851,1.851A1.851,1.851,0,0,0,13.955,35.312Z" transform="translate(503.883 469.498)" fill="#3ec4b5"/></g></svg>