<svg xmlns="http://www.w3.org/2000/svg" width="35.613" height="41.682" viewBox="0 0 35.613 41.682"><g transform="translate(-1560.693 -430.498)"><path d="M21.26.992a1.488,1.488,0,0,1,1.476,1.5l.012,1.5H27.2a1.488,1.488,0,1,1,0,2.976H22.765l.017,2.976H34.638V1.015h2.976V27.8H34.638V18.869H21.579a1.488,1.488,0,0,1-.482,0H15.39A1.468,1.468,0,0,0,13.9,20.357V24.82H15.39a1.488,1.488,0,1,1,0,2.976H3.488a1.488,1.488,0,1,1,0-2.976H4.976V20.357A10.437,10.437,0,0,1,15.39,9.942h4.417l-.017-2.976H15.3a1.488,1.488,0,1,1,0-2.976h4.475L19.76,2.515A1.488,1.488,0,0,1,21.26.992ZM34.638,12.918H22.829v2.976H34.638Zm-14.814,0H15.39a7.416,7.416,0,0,0-7.439,7.439V24.82h2.976V20.357a4.486,4.486,0,0,1,4.463-4.463h4.452Z" transform="translate(1558.693 429.506)" fill="#392c23"/><path d="M9.535,31.461,10.773,33.3s.77,1.151,1.546,2.516a23.178,23.178,0,0,1,1.093,2.139A5.189,5.189,0,0,1,14,40.167a4.464,4.464,0,0,1-8.927,0,5.189,5.189,0,0,1,.587-2.208A23.179,23.179,0,0,1,6.752,35.82C7.527,34.455,8.3,33.3,8.3,33.3Zm0,5.515c-.094.16-.1.145-.192.314-.356.626-.708,1.292-.953,1.854a9.306,9.306,0,0,0-.343,1.023,1.49,1.49,0,0,0,2.976,0,9.3,9.3,0,0,0-.343-1.023c-.245-.562-.6-1.228-.953-1.854C9.631,37.122,9.63,37.137,9.535,36.977Z" transform="translate(1558.505 427.631)" fill="#3ec4b5"/></g></svg>