<svg xmlns="http://www.w3.org/2000/svg" width="44.498" height="53.681" viewBox="0 0 44.498 53.681"><g transform="translate(-199.251 -418.499)"><path d="M9.535,31.461,10.773,33.3s.77,1.151,1.546,2.516a23.178,23.178,0,0,1,1.093,2.139A5.189,5.189,0,0,1,14,40.167a4.464,4.464,0,0,1-8.927,0,5.189,5.189,0,0,1,.587-2.208A23.179,23.179,0,0,1,6.752,35.82C7.527,34.455,8.3,33.3,8.3,33.3Zm0,5.515c-.094.16-.1.145-.192.314-.356.626-.708,1.292-.953,1.854a9.306,9.306,0,0,0-.343,1.023,1.49,1.49,0,0,0,2.976,0,9.3,9.3,0,0,0-.343-1.023c-.245-.562-.6-1.228-.953-1.854C9.631,37.122,9.63,37.137,9.535,36.977Z" transform="translate(210.255 427.631)" fill="#3ec4b5"/><path d="M31.325,44.8Zm12.592-3.828a1.735,1.735,0,0,0-2.453,0,1.491,1.491,0,0,1-2.118,0,4.714,4.714,0,0,0-6.961,0,1.569,1.569,0,0,1-1.059.447,1.6,1.6,0,0,1-1.088-.448,5.034,5.034,0,0,0-3.479-1.548,5.038,5.038,0,0,0-3.482,1.548,1.567,1.567,0,0,1-1.059.448,1.609,1.609,0,0,1-1.088-.448,5.056,5.056,0,0,0-3.509-1.461,4.848,4.848,0,0,0-3.452,1.461,1.526,1.526,0,0,1-1.059.448,1.64,1.64,0,0,1-1.088-.448,4.978,4.978,0,0,0-3.51-1.461,4.84,4.84,0,0,0-3.472,1.467A1.461,1.461,0,0,1,4,41.417a1.481,1.481,0,0,1-1.03-.448A1.735,1.735,0,0,0,.52,43.426,4.918,4.918,0,0,0,7.5,43.42a1.434,1.434,0,0,1,2.069.006,5.017,5.017,0,0,0,7.048,0,1.418,1.418,0,0,1,2.06,0,5.014,5.014,0,0,0,7.048,0,1.633,1.633,0,0,1,1.032-.534,1.63,1.63,0,0,1,1.028.534,5.024,5.024,0,0,0,7.048,0,1.662,1.662,0,0,1,1.039-.534,1.626,1.626,0,0,1,1.021.534,5.046,5.046,0,0,0,3.538,1.461c1.868.083,5.306-1.794,3.483-3.914ZM21.089,16.348H7.21a7.208,7.208,0,0,0-7.2,7.2V34.564a1.735,1.735,0,0,0,3.47,0V23.548a3.734,3.734,0,0,1,3.73-3.73h.783a7.157,7.157,0,0,0-1.044,3.73V34.564a1.735,1.735,0,0,0,3.47,0V23.548a3.734,3.734,0,0,1,3.73-3.73h.783a7.157,7.157,0,0,0-1.043,3.73V34.564a1.735,1.735,0,1,0,3.47,0V23.548a3.734,3.734,0,0,1,3.73-3.73A1.735,1.735,0,0,0,21.089,16.348Z" transform="translate(199.25 418.025)" fill="#3ec4b5"/><path d="M42.775,25.283H26.318a15.005,15.005,0,0,0-1.68-21.339H42.775a1.735,1.735,0,0,0,0-3.47H15.017A15,15,0,0,0,.3,12.638a1.735,1.735,0,1,0,3.408.654C6.568-.2,26.216,1.49,26.553,15.356a11.633,11.633,0,0,1-4.632,9.316,2.261,2.261,0,0,0,1.343,4.08h19.51a1.735,1.735,0,0,0,0-3.47Z" transform="translate(199.25 418.025)" fill="#392c23"/></g></svg>