<svg xmlns="http://www.w3.org/2000/svg" width="29.63" height="20" viewBox="0 0 29.63 20"><g transform="translate(766.63 390) rotate(180)"><path d="M23.22,17.5A6.156,6.156,0,0,0,28.672,20a6.911,6.911,0,0,0,4.692-1.554,5.465,5.465,0,0,0,1.794-4.257A5.424,5.424,0,0,0,33.5,9.932a6.192,6.192,0,0,0-4.416-1.554,6.274,6.274,0,0,0-5.037,2.095,5.787,5.787,0,0,1-.138-1.486,6.507,6.507,0,0,1,.345-2.23,8.592,8.592,0,0,1,1.932-3.176,10.118,10.118,0,0,1,3.243-2.365L28.81,0a12.1,12.1,0,0,0-5.451,4.595A11.982,11.982,0,0,0,21.5,11.081a13.485,13.485,0,0,0,.483,3.716A8.31,8.31,0,0,0,23.22,17.5Z" transform="translate(731.471 370)" fill="#3ec4b5"/><path d="M1.725,17.5A6.156,6.156,0,0,0,7.176,20a6.911,6.911,0,0,0,4.692-1.554,5.465,5.465,0,0,0,1.794-4.257,5.424,5.424,0,0,0-1.656-4.257A6.192,6.192,0,0,0,7.59,8.378a6.274,6.274,0,0,0-5.037,2.095,5.787,5.787,0,0,1-.138-1.486,6.507,6.507,0,0,1,.345-2.23A8.592,8.592,0,0,1,4.692,3.581,10.118,10.118,0,0,1,7.935,1.216L7.314,0A12.1,12.1,0,0,0,1.863,4.595,11.982,11.982,0,0,0,0,11.081,13.485,13.485,0,0,0,.483,14.8,8.31,8.31,0,0,0,1.725,17.5Z" transform="translate(737 370)" fill="#3ec4b5"/></g></svg>