<svg xmlns="http://www.w3.org/2000/svg" width="19.338" height="24.228" viewBox="0 0 19.338 24.228"><g transform="translate(-1578.832 -743)"><path d="M0,25.492V12.151l9.777-2.09,9.561,2.09V25.492c0,5.34-5.042,8.8-9.6,8.8S0,30.832,0,25.492Z" transform="translate(1578.832 732.939)" fill="#242c36"/><g transform="translate(1581.203 744.618)"><g transform="translate(2.966 0)"><path d="M638.872,115.853c.037,0,.074,0,.111,0a.428.428,0,0,0,0-.116A.154.154,0,0,0,638.872,115.853Z" transform="translate(-634.804 -114.919)" fill="#fff"/><path d="M669.1,115.849c0,.037,0,.074,0,.111.018.023.053.007.078.017a.146.146,0,0,0-.005-.086A.117.117,0,0,0,669.1,115.849Z" transform="translate(-664.753 -115.027)" fill="#fff"/><path d="M760.156,125.075a.127.127,0,0,0-.094.094.6.6,0,0,0,.175.033c.008-.04.016-.079.021-.119A.173.173,0,0,0,760.156,125.075Z" transform="translate(-754.888 -124.163)" fill="#fff"/><path d="M421.373,154.98a.1.1,0,0,0-.118.026.057.057,0,0,0,.007.079.126.126,0,0,0,.086.009.225.225,0,0,0,.053-.038C421.4,155.028,421.4,154.994,421.373,154.98Z" transform="translate(-419.162 -153.794)" fill="#fff"/><path d="M195.17,190.148c0,.131,0,.263,0,.394,0,.016-.013.026-.022.037a.988.988,0,0,1-.183.157c-.029.016-.059.032-.089.047a1,1,0,0,1-.163.047c-.032.011-.066.005-.1.015s-.077,0-.112.014-.072,0-.105.015a.32.32,0,0,1-.08.014c-.062.018-.126.026-.187.048a1.608,1.608,0,0,0-.422.2,1.136,1.136,0,0,1-.172.107q0-.741,0-1.482a.6.6,0,0,1,.147-.138.837.837,0,0,1,.151-.105,1,1,0,0,1,.2-.083.632.632,0,0,1,.186-.019c.037,0,.07-.019.106-.02,0,.332,0,.663,0,1a.161.161,0,0,0,.044.1.156.156,0,0,0,.135.006c.029-.018.049-.048.08-.063.055-.03.107-.065.163-.094a2.9,2.9,0,0,1,.291-.148A.482.482,0,0,1,195.17,190.148Z" transform="translate(-193.537 -187.906)" fill="#fff"/><path d="M297.826,28.121c.042.02.079.049.121.07a2.514,2.514,0,0,1,.284.174.2.2,0,0,0,.009-.053q0-.64,0-1.28a.253.253,0,0,0-.081-.168,1.008,1.008,0,0,0-.164-.147,3.049,3.049,0,0,0-.632-.337,1.855,1.855,0,0,0-.227-.086,2.817,2.817,0,0,0-.269-.095c-.124-.034-.246-.075-.37-.106-.041-.019-.087-.009-.128-.025a.879.879,0,0,0-.153-.042.329.329,0,0,1-.09-.019c-.047,0-.088-.024-.135-.024-.07-.023-.144-.02-.214-.039a.8.8,0,0,1-.111-.014c-.036-.016-.077,0-.114-.015a.331.331,0,0,0-.12-.011c-.025,0-.047-.017-.072-.017s-.068,0-.1,0-.047-.016-.072-.017c-.058,0-.116,0-.174,0a.253.253,0,0,0-.073-.017h-.65c-.035,0-.065.023-.1.018a.518.518,0,0,0-.185.014c-.047.012-.1-.005-.144.01s-.1,0-.156.02c-.05,0-.1.022-.146.02-.092.021-.186.037-.278.061-.055.009-.106.032-.161.041l-.13.032c-.061.021-.12.044-.181.063a1.036,1.036,0,0,0-.2.077,3.556,3.556,0,0,0-.908.526c-.043.029-.078.069-.121.1-.061.055-.114.119-.177.173,0,.452,0,.9,0,1.356a1.447,1.447,0,0,0,.171-.1c.061-.038.128-.066.188-.105s.1-.05.144-.075A1.966,1.966,0,0,1,292.09,28c.141-.062.282-.127.428-.175.1-.041.209-.077.315-.111a2.369,2.369,0,0,0,.239-.069c.081-.013.159-.04.241-.048.06-.017.123-.025.184-.041.03-.013.064-.008.095-.018a.569.569,0,0,0,.1-.019c.032-.017.07,0,.1-.018s.071-.005.106-.014.1,0,.149-.016a1.338,1.338,0,0,1,.153-.012,1.29,1.29,0,0,1,.247-.016.255.255,0,0,1,.068-.015h.595c.035,0,.065.02.1.018h.175c.031,0,.059.018.091.017a.367.367,0,0,1,.116.008c.041.017.087,0,.129.013s.083,0,.121.017.078,0,.114.016a.139.139,0,0,0,.051.01c.031,0,.059.019.091.018a.874.874,0,0,1,.091.018c.131.024.261.054.389.09a1.872,1.872,0,0,1,.2.053c.109.025.212.067.318.1.089.035.181.063.268.1s.2.074.287.126C297.708,28.064,297.767,28.092,297.826,28.121Zm-4.371-1.814a.1.1,0,0,1,.158.015.083.083,0,0,1-.018.084c-.026.037-.076.02-.114.024A.109.109,0,0,1,293.456,26.307Zm-.194-.127c0-.028.03-.043.054-.051a.1.1,0,0,1,.1.021c.022.018.015.049.015.074s-.039.059-.072.06-.058.005-.076-.019A.1.1,0,0,1,293.262,26.181Zm-.135.176a.108.108,0,0,1,.061-.038.085.085,0,0,1,.084.02.1.1,0,0,1,.017.091.105.105,0,0,1-.124.042A.1.1,0,0,1,293.128,26.357Zm.673.611a.106.106,0,0,1-.1.047c-.062,0-.122.02-.184.019-.186.025-.372.052-.557.09a.275.275,0,0,1-.058.009.267.267,0,0,1-.21.187.229.229,0,0,1-.145-.016.523.523,0,0,1-.079-.06.447.447,0,0,0-.063,0,.6.6,0,0,0,.034.181.435.435,0,0,1,.023.1.216.216,0,0,1-.1.028.071.071,0,0,1-.083-.041c-.024-.088-.049-.176-.074-.265a.111.111,0,0,1,.034-.11.443.443,0,0,1,.173-.071c.024-.006.034-.031.046-.05a.529.529,0,0,1,.087-.1.227.227,0,0,0,.057-.105.364.364,0,0,0,.106.071.34.34,0,0,1,.159.082c.08-.018.161-.034.243-.047,0-.036-.018-.088.021-.109s.07-.045.105-.068a.324.324,0,0,1,.029.142.36.36,0,0,0,.106,0c.015-.053-.034-.11,0-.158a.156.156,0,0,1,.041-.033.582.582,0,0,1,.095-.057c0,.04.013.079.016.119a.554.554,0,0,0,.013.1.808.808,0,0,1,.1-.005c0-.048-.02-.094-.019-.143,0-.024-.005-.053.014-.072a.363.363,0,0,1,.138-.085c0,.05.01.1.015.149s0,.109.013.163C293.8,26.892,293.818,26.932,293.8,26.968Zm1.284-.059a.084.084,0,0,1-.063.069c-.061,0-.122,0-.183,0a1.364,1.364,0,0,0-.2-.007c-.1,0-.206,0-.309,0s-.178,0-.267.011a.213.213,0,0,1-.058,0c-.016-.048,0-.1-.016-.148s0-.11-.011-.165c0-.07-.013-.139-.013-.21s0-.129-.013-.193-.013-.141-.011-.212a.363.363,0,0,1,.134.056.1.1,0,0,1,.035.042,1.349,1.349,0,0,1,.015.2c.012.072,0,.146.01.219s0,.151.016.226c.037.015.076,0,.114,0a.481.481,0,0,0,.143-.009c.015-.027.02-.058.034-.085a.4.4,0,0,1,.14-.15c.03-.021.065-.031.1-.05.014-.039.01-.085.04-.117a1.1,1.1,0,0,1,.134-.094.135.135,0,0,1,.008.08,1.091,1.091,0,0,0,0,.13.337.337,0,0,1,.15.062.246.246,0,0,1,.087.183A1.212,1.212,0,0,1,295.084,26.908Zm2.093-.366c.05-.016.122.016.116.075a.07.07,0,0,1-.043.077.244.244,0,0,1-.064,0,.071.071,0,0,1-.053-.077A.067.067,0,0,1,297.177,26.542Zm-.8-.057a.486.486,0,0,1,.092,0c.015.021.037.041.035.07a.079.079,0,0,1-.045.078.1.1,0,0,1-.089-.015A.082.082,0,0,1,296.373,26.485Zm-.388-.244c.039-.007.092-.015.118.024a.079.079,0,0,1-.042.127.133.133,0,0,1-.076-.009A.088.088,0,0,1,295.985,26.241Zm-.324-.024a.07.07,0,0,1,.057-.025c.035,0,.081.009.092.048a.1.1,0,0,1-.026.1c-.017.014-.04.01-.06.011a.08.08,0,0,1-.074-.047A.1.1,0,0,1,295.662,26.217Zm.326.82c-.012.019-.029.041-.054.04-.077,0-.151-.025-.228-.028s-.137-.015-.2-.027a.852.852,0,0,1,.017-.167.27.27,0,0,1,.234-.25.581.581,0,0,1,.137.007.377.377,0,0,0,.184-.041.574.574,0,0,1-.019.135c-.008.059-.023.117-.028.177A.553.553,0,0,1,295.988,27.037Zm1.291.069c-.106-.011-.2-.074-.311-.076a.126.126,0,0,0,.085.125l.177.056a.181.181,0,0,1-.059.146.348.348,0,0,1-.178-.031q-.286-.087-.578-.151c-.022.053-.026.119-.077.156a.206.206,0,0,1-.3-.067.249.249,0,0,1-.027-.093c.071-.009.138.021.209.018.019-.052.021-.108.035-.162s.021-.133.084-.156a.543.543,0,0,1,.14-.024c-.01.049-.02.1-.033.146a1.16,1.16,0,0,0,.132.036c.079.022.158.041.238.058a.462.462,0,0,1-.013-.121.134.134,0,0,1,.143-.127.633.633,0,0,1,.183.044.593.593,0,0,0,.147.036.086.086,0,0,1,.07-.037C297.329,26.959,297.293,27.03,297.279,27.106Z" transform="translate(-290.506 -25.851)" fill="#fff"/><path d="M956.83,194.342a.571.571,0,0,1-.16-.1c-.071-.042-.139-.09-.214-.125a1.751,1.751,0,0,0-.393-.132c-.035-.014-.075-.008-.109-.023s-.07,0-.1-.015a.153.153,0,0,0-.068-.01c-.035,0-.066-.016-.1-.013s-.053-.021-.082-.023a.621.621,0,0,1-.24-.1,1.324,1.324,0,0,1-.176-.158c0-.152,0-.3,0-.456a.411.411,0,0,1,.133.054c.1.047.2.094.288.15a1.641,1.641,0,0,1,.157.091c.035.027.076.044.111.072a.115.115,0,0,0,.13.014.137.137,0,0,0,.052-.116c0-.319,0-.639,0-.958.052.005.1,0,.157,0a.362.362,0,0,0,.09.019c.051.022.106.035.158.055a1.149,1.149,0,0,1,.234.157c.052.029.081.087.137.108C956.83,193.343,956.833,193.843,956.83,194.342Z" transform="translate(-948.227 -190.978)" fill="#fff"/></g><g transform="translate(0 2.842)"><g transform="translate(0 0)"><path d="M575.175,121.456a.484.484,0,0,1,.631-.049c.068.071.1.171.178.232s.207.053.309.1a.3.3,0,0,1,.166.232,1.551,1.551,0,0,1,.011.253.236.236,0,0,0,.036.144.246.246,0,0,0,.062.051.943.943,0,0,0,.728.2,8.16,8.16,0,0,0,.862-.306,2.042,2.042,0,0,1,1.045-.157,1.44,1.44,0,0,1,.912.617,2.176,2.176,0,0,1,.349,1.062,2.967,2.967,0,0,1-.448,1.8,2.478,2.478,0,0,0-.329.542,1.662,1.662,0,0,0-.064.37,1.944,1.944,0,0,0,.05.787,1.1,1.1,0,0,0,.329.489.362.362,0,0,0,.114.071.91.91,0,0,0,.776-.078.537.537,0,0,0,.137-.275,2.35,2.35,0,0,0,.031-.6.425.425,0,0,1,.1-.347,8.3,8.3,0,0,1,.763-1.031.337.337,0,0,0,.056-.1c.03-.066.087-.115.114-.183.034-.122-.114-.12-.189-.122a.364.364,0,0,0-.131.005.242.242,0,0,0-.086.065,3,3,0,0,1-.25.254,3.062,3.062,0,0,1-.273.168.3.3,0,0,1-.094.045.265.265,0,0,1-.194-.058c-.069-.046-.049-.185-.046-.259a1.656,1.656,0,0,0,.01-.277c-.011-.092-.05-.178-.06-.27a.87.87,0,0,1,.024-.256,1,1,0,0,1,.047-.18c.018-.047.044-.091.061-.138.024-.067.032-.138.05-.207a.527.527,0,0,1,.192-.254c0-.027,0-.054,0-.081s-.057-.065-.066-.08a.392.392,0,0,1-.047-.1.189.189,0,0,1,.058-.195.719.719,0,0,1,.376-.185.5.5,0,0,1,.333.051.276.276,0,0,0,.06.2l.075,0,.071-.051c.02-.014-.016-.082-.023-.1-.02-.035-.045-.042-.021-.088a.212.212,0,0,1,.077-.1.2.2,0,0,1,.077-.019,1.015,1.015,0,0,1,.208,0,.252.252,0,0,1,.094.024c.087.047.129.265.127.355a.4.4,0,0,0,.081.3c.1.026.166-.068.259-.078a.142.142,0,0,1,.171.078.82.82,0,0,1,.073.32,2.073,2.073,0,0,1,0,.252,3.068,3.068,0,0,1,.007.379c-.014.093-.059.181-.078.273-.026.129-.033.265-.049.4l-.095.769-.137,1.112a1.561,1.561,0,0,0,0,.534.529.529,0,0,0,.324.4.3.3,0,0,0,.211,0,.483.483,0,0,0,.1-.065l.541-.422a.123.123,0,0,0,.059-.121l.054-1.319a.708.708,0,0,0-.1-.461l-.326-.646a3.247,3.247,0,0,1-.295-.724,1.445,1.445,0,0,1,.11-.98,1.659,1.659,0,0,1,1-.774,3.482,3.482,0,0,1,1.546-.1,4.119,4.119,0,0,1,.76.19,3.119,3.119,0,0,0,.7.242c.042,0,.09,0,.1-.051,0-.147-.053-.251.059-.376a.541.541,0,0,1,.552-.153.587.587,0,0,0,.26.006q0-.064-.005-.128c.054,0,.118.006.156-.042a.123.123,0,0,0,.034-.112.884.884,0,0,0-.115-.077c-.033,0-.066,0-.1,0,0,.073.005.145.008.218-.082,0-.164,0-.246.006-.128-.117-.021-.305.083-.4a.652.652,0,0,1,.709-.141c.377.192.384.727.357,1.089a2.794,2.794,0,0,1-.508,1.371.5.5,0,0,0-.138.385c.06.243.331.44.234.711-.009.024-.024.051-.05.053s-.037,0-.044.009,0,.021.006.031a.282.282,0,0,1,.005.147c-.013.137.057.256.051.393a1.028,1.028,0,0,1-.146.442,1.868,1.868,0,0,1-.5.592,2.219,2.219,0,0,1-1.232.384,1.342,1.342,0,0,0-.322.038.832.832,0,0,0-.37.259.234.234,0,0,0-.044.064.24.24,0,0,0-.014.073.45.45,0,0,0,.111.392.418.418,0,0,0,.27.073,1.26,1.26,0,0,0,.8-.293.389.389,0,0,1,.227-.126c.136,0,.216.155.236.29a.969.969,0,0,1-.041.48c-.043.112-.2.229-.093.356a.22.22,0,0,0,.176.053h.442a.437.437,0,0,0,.139-.015.338.338,0,0,0,.123-.081.785.785,0,0,0,.225-.6.047.047,0,0,0-.005-.026.038.038,0,0,0-.035-.013c-.053,0-.1.036-.149.04a.551.551,0,0,1-.475-.311.481.481,0,0,1,.13-.5.779.779,0,0,1,.595-.154.687.687,0,0,1,.6.432,1.4,1.4,0,0,1-.18,1.259,3.224,3.224,0,0,1-.68.724,3.436,3.436,0,0,1-.847.544,2.775,2.775,0,0,1-1.241.178,5.926,5.926,0,0,1-.746-.1c-.079-.015-.661-.191-.706-.131-.058.077-.167.118-.188.216a.722.722,0,0,0-.007.14.715.715,0,0,1-.213.493.332.332,0,0,0-.069.079.39.39,0,0,0-.014.191.9.9,0,0,1-.035.228.659.659,0,0,1-.085.225.316.316,0,0,1-.207.134c-.134.015-.337-.078-.414.081a1.027,1.027,0,0,0-.09.609.107.107,0,0,1,0,.064.1.1,0,0,1-.035.034,1.441,1.441,0,0,1-.336.172c-.108.038-.08.265-.041.353.018.042.091.133.135.05a.181.181,0,0,0,.013-.074.2.2,0,0,1,.087-.171.132.132,0,0,1,.183.085c.011.051-.008.111.025.151a.1.1,0,0,0,.119.012.284.284,0,0,0,.088-.093l.111-.16c.077-.111.134-.186.262-.114a1.426,1.426,0,0,0-.036.292.309.309,0,0,0,.072.18.318.318,0,0,0,.135-.02.95.95,0,0,1,.273-.552c.05-.148.149-.273.193-.423l.047,0a4.349,4.349,0,0,1,.185.653,1.6,1.6,0,0,1,.014.734c-.044.174-.128.336-.158.513a2.3,2.3,0,0,0,.047.695,1,1,0,0,1-.09.679c-.078.122-.2.211-.276.333a3.327,3.327,0,0,0-.151.352.383.383,0,0,1-.277.24.757.757,0,0,1-.325-.095,2.222,2.222,0,0,0-.527-.074.636.636,0,0,1-.467-.222,1.608,1.608,0,0,1-.836.142l-.889-.01a1.859,1.859,0,0,1-.9-.185.806.806,0,0,1-.4-.265,1.407,1.407,0,0,1-.1-.6,3.243,3.243,0,0,1-.134-.712c.016-.167.1-.321.118-.487.029-.29-.152-.6-.031-.861.1.058.214-.043.249-.149a1.406,1.406,0,0,1,.093-.293c.055-.092.146-.158.164-.27,0,.026.061.2.069.239a1.292,1.292,0,0,0,.106.313.2.2,0,0,0,.112.119.192.192,0,0,0,.184-.09.693.693,0,0,0,.109-.659,3.263,3.263,0,0,1-.229-.5.49.49,0,0,0-.034-.145.421.421,0,0,0-.113-.114c-.247-.208-.214-.45-.249-.733a1.8,1.8,0,0,1-.16-.185.507.507,0,0,1-.06-.218c-.01-.068-.056-.126-.061-.195s0-.144-.05-.193c-.031-.033-.078-.019-.118-.02a1.387,1.387,0,0,0-.518.051c-.17.061-.322.16-.488.23a2.216,2.216,0,0,1-.532.137,3.191,3.191,0,0,1-.991.01,2.4,2.4,0,0,1-1.975-1.969.722.722,0,0,1,1.084-.817c.127.081.442.386.328.562-.035.055-.113.056-.173.081a.25.25,0,0,0-.127.3c.036.053.092.088.125.142s.059.1.114.117a2.161,2.161,0,0,1,.211.089,3.194,3.194,0,0,0,.809-.017.259.259,0,0,0,.149-.092c0-.033,0-.066,0-.1-.088-.051-.2-.013-.282-.067a2.022,2.022,0,0,1-.266-.187.57.57,0,0,1-.207-.288,1.062,1.062,0,0,1-.043-.293.3.3,0,0,1,.037-.145.146.146,0,0,1,.141-.1c.065.022.114.111.19.071a1.859,1.859,0,0,0,.1-.162c.04-.061.114-.079.168-.124.1-.081.246-.052.359-.111,0-.039,0-.077,0-.116a1.21,1.21,0,0,0-.8-.174,1.287,1.287,0,0,1-.68-.011.917.917,0,0,1-.3-.224.825.825,0,0,1-.237-.4c-.014-.073-.011-.15-.032-.222a1.009,1.009,0,0,0-.138-.246,1.134,1.134,0,0,1,.206-1.425.179.179,0,0,0,.074-.094c.013-.072-.067-.12-.117-.173-.108-.115-.088-.305-.181-.432a.613.613,0,0,1-.1-.134.747.747,0,0,1-.015-.174.729.729,0,0,0-.1-.23.738.738,0,0,1-.076-.246.569.569,0,0,0-.08-.244,1.818,1.818,0,0,0-.17-.246,2.532,2.532,0,0,1-.191-.238.443.443,0,0,1-.079-.289.585.585,0,0,0,.016-.127.417.417,0,0,0-.024-.088.511.511,0,0,1,.058-.448A.33.33,0,0,1,575.175,121.456Zm.175.023a1.143,1.143,0,0,0-.152.163c-.034.033-.028.081-.029.124l.123-.006a2.788,2.788,0,0,1,.024.372l-.133,0c0,.023,0,.047,0,.07h.057a.43.43,0,0,1,.159-.1c.038-.079.149-.138.112-.239s-.154-.1-.232-.142c0-.033,0-.065,0-.1.039-.069.118-.067.188-.069.081.075.158.153.238.227a.189.189,0,0,0,.113-.13.254.254,0,0,0-.049-.115c-.03-.041-.05-.1-.1-.111C575.559,121.381,575.449,121.441,575.35,121.478Zm.709.428a.3.3,0,0,0,.088.224l.076-.037a1.521,1.521,0,0,0-.073-.138A.266.266,0,0,0,576.059,121.907Zm-.3.152c.007.058.069.1.064.161s-.057.1-.053.156c.045.12.045.251.093.371l-.084.032c0,.037,0,.075,0,.112.051.025.1.048.156.07,0,.044,0,.088,0,.133a1.656,1.656,0,0,1,.267.191c.026.025.058,0,.086-.01-.006-.037,0-.082-.026-.111a.707.707,0,0,1-.138-.156c-.037-.079-.1-.144-.137-.219-.026-.084.068-.138.1-.2a.525.525,0,0,1,.031.168c.052.026.1.055.154.085,0,.054,0,.109,0,.163a.886.886,0,0,1,.327.136.113.113,0,0,0,.091.036.53.53,0,0,1,.207.017c-.005-.051.007-.126-.057-.144a.711.711,0,0,1-.3-.222.931.931,0,0,0-.18-.285c-.033-.033-.082-.055-.1-.1-.01-.07-.011-.141-.015-.212-.081-.03-.172,0-.247-.05s-.12-.124-.188-.176A.5.5,0,0,0,575.756,122.059Zm-.367.186a.243.243,0,0,0,.061.113l.065-.006a.429.429,0,0,0-.052-.152Zm13.358-.039a.368.368,0,0,1,.228.034.806.806,0,0,1-.052.216.752.752,0,0,0,0,.167l-.095.084a1.117,1.117,0,0,1,0,.177.419.419,0,0,0-.068.2c-.007.083.028.173-.019.248a.155.155,0,0,0,.022.209q.033-.047.069-.092c.035.007.07.014.1.025a.5.5,0,0,0,.04-.127.906.906,0,0,1,.108-.257,1.5,1.5,0,0,1,.01-.216,1.225,1.225,0,0,0,0-.273.618.618,0,0,1-.019-.228c.027-.062.076-.11.107-.169a.624.624,0,0,0-.056-.119h-.038a.335.335,0,0,1-.066.166.806.806,0,0,1-.071-.062c-.006-.056-.005-.112-.01-.169C588.854,122.057,588.825,122.157,588.746,122.206Zm-10.188.284q0,.082,0,.163a.771.771,0,0,1,.307.252c.076.035.153-.038.227-.053.125-.007.251-.007.377-.008,0-.018,0-.037,0-.055-.042,0-.092.014-.127-.017-.057-.042-.113-.085-.167-.131,0-.034,0-.069,0-.1a.807.807,0,0,1,.1-.022l-.007-.035a1.516,1.516,0,0,0-.182.032,1.208,1.208,0,0,0-.121-.075,1.457,1.457,0,0,0-.183,0A.978.978,0,0,0,578.559,122.49Zm-.6.123q0,.051,0,.1l.123,0c0-.034,0-.068,0-.1Zm-1.171.113c.027.033.048.076.094.085a1.01,1.01,0,0,0,.327.074c.086-.01.151.065.234.071.048-.011.093-.033.14-.048,0-.024,0-.047,0-.07-.115,0-.23.006-.345.013a.875.875,0,0,0-.265-.137A.234.234,0,0,0,576.789,122.726Zm1.385.205a1.187,1.187,0,0,0,.358.012c.033.058.053.139.124.162.036.017.074-.01.111-.015a.717.717,0,0,0-.009-.109.285.285,0,0,0-.075-.076c-.052.008-.1.023-.154.03,0-.03,0-.06,0-.09a1.575,1.575,0,0,1-.169-.153C578.3,122.775,578.229,122.846,578.175,122.931Zm7.7-.242c-.09.008-.181.008-.272.01a.63.63,0,0,1-.1.219.616.616,0,0,0,.191-.084,1.174,1.174,0,0,1,.21-.01.541.541,0,0,1,.116.1c-.017.068-.06.137-.038.21.025.05.057.1.084.146.027,0,.053,0,.08,0,.045.024.078.066.125.087a.38.38,0,0,0,.2.012c.035.05.063.118.128.136.085.006.169-.009.254-.01,0-.043,0-.086,0-.128a1.476,1.476,0,0,1,.249-.1,1.2,1.2,0,0,1-.32-.058l-.05.125a1.484,1.484,0,0,1-.207-.008c0-.023,0-.069,0-.092.052,0,.1,0,.155,0a.177.177,0,0,0-.046-.144,1.1,1.1,0,0,0-.121,0c-.071,0-.127-.047-.188-.073,0-.021,0-.064,0-.085.138-.008.273.022.41.01a.691.691,0,0,0,.006.125c.037.026.08.06.128.045s.119-.048.181-.067l-.057-.057a.706.706,0,0,0-.342-.154,1.513,1.513,0,0,0-.514-.081,1.086,1.086,0,0,1-.132-.169A.407.407,0,0,1,585.871,122.689Zm1.894-.152a.485.485,0,0,0-.075.094c0,.034,0,.069,0,.1l.056.05a1.019,1.019,0,0,1,.064-.125.812.812,0,0,1,.108-.073A.157.157,0,0,0,587.766,122.537Zm-10.594.616c.07,0,.141,0,.211-.006a1.24,1.24,0,0,1,.114.111.552.552,0,0,1,.011.115c.066.006.132.018.2.021.061.03.1.1.165.117a.489.489,0,0,0,.161,0c.068-.011.1-.078.16-.112a2.092,2.092,0,0,1,.234-.035q0-.061,0-.122a.433.433,0,0,1-.248-.09c-.1.053-.208.1-.314.143-.045.018-.107.031-.143-.011a1.072,1.072,0,0,0-.035-.208c-.09.008-.16.086-.254.071-.052-.033-.092-.081-.146-.11C577.212,123.02,577.2,123.112,577.172,123.153Zm7.691-.238c-.076.033-.116.128-.205.138a.809.809,0,0,0-.438.243c-.07.047-.11.125-.179.172a.753.753,0,0,1-.141.007c0,.026,0,.053,0,.079l-.1,0c-.015-.034-.029-.067-.043-.1l-.093,0a1.126,1.126,0,0,1-.066.108c-.07.072-.056.18-.084.27a.612.612,0,0,1,.1-.052c.047.025.017.079,0,.115a1.452,1.452,0,0,0-.072.247l.015.017c.026-.06.03.02.061.008.038-.063.1-.1.151-.154a.866.866,0,0,0,.013-.233l.053-.033c.048.028.1.123.162.063.107-.077.12-.214.181-.321a3.072,3.072,0,0,1,.307-.309.333.333,0,0,1,.176.024c-.079.076-.2.094-.27.176a.786.786,0,0,0-.126.2c-.009.05,0,.1,0,.152a1.352,1.352,0,0,1-.2.2c-.087.092-.172.186-.258.279.018.036.037.072.057.107a.8.8,0,0,1,.242-.255.732.732,0,0,1,.1-.008.531.531,0,0,1,.115-.13c.027-.006.054-.008.081-.015a.936.936,0,0,0,.256-.231l.111,0,.039-.095c-.026-.008-.051-.014-.077-.02-.12-.018-.189.121-.3.123l-.072,0c.006-.039-.01-.091.032-.115a.575.575,0,0,1,.161-.011c0-.043,0-.086,0-.129a.392.392,0,0,0,.2-.144l.084,0c.016.032.033.063.048.1a1.287,1.287,0,0,0,.466-.009,1.828,1.828,0,0,1,.333.006.485.485,0,0,0,.214-.027c0-.03,0-.06,0-.09a.821.821,0,0,1-.406-.051c0-.034.005-.072-.017-.1-.043-.081-.16-.05-.218,0a1.039,1.039,0,0,0,.068.109,1.065,1.065,0,0,1-.377.054c0-.019,0-.058,0-.077a.362.362,0,0,0,.081-.155c.026-.053.072-.1.075-.163C585.02,122.883,584.943,122.91,584.863,122.915Zm-5.831.13c0,.046,0,.092.009.137a.759.759,0,0,0,.132,0c0-.036,0-.071,0-.107C579.141,123.024,579.078,123.052,579.032,123.045Zm.638.054a.312.312,0,0,0,.032.127.92.92,0,0,1,.112-.034c-.014-.036-.028-.072-.04-.108C579.739,123.088,579.7,123.093,579.669,123.1Zm-3.235.155a.476.476,0,0,0-.047.174c-.078.065-.183.028-.269.068a.588.588,0,0,0,.031.163l-.07.075c-.029-.039-.054-.088-.108-.092a.2.2,0,0,0-.033.143c.027.033.063.057.093.088.014.046,0,.1.012.143a.655.655,0,0,0,.288.369.387.387,0,0,0,.129.005l-.01-.072a1.132,1.132,0,0,0-.272-.18q0-.09,0-.18a.31.31,0,0,1,.141.162.228.228,0,0,0,.113,0,.638.638,0,0,0,.052-.062.942.942,0,0,0,.133.183c.038.021.086,0,.128.007,0-.02,0-.06,0-.08a.489.489,0,0,1-.185-.239c.027-.086.09-.161.118-.248a.893.893,0,0,1,.084.08c.023.054.013.12.053.167a.924.924,0,0,0,.142.208c.054.046.109.117.189.1.025-.126-.116-.18-.15-.286-.025-.064-.084-.109-.1-.176-.038-.153-.129-.285-.176-.434-.032.006-.071,0-.1.024,0,.064.027.125.024.189l-.077.011a.6.6,0,0,0-.051-.311Zm2.149-.007-.044.048c0,.041,0,.081,0,.122a.979.979,0,0,1,.295-.033q0-.055-.006-.111l-.071-.05-.055.058A.224.224,0,0,0,578.583,123.247Zm.76-.037,0,.1a1.84,1.84,0,0,1,.19.113.315.315,0,0,0,.088-.022c0-.033,0-.067,0-.1-.052-.027-.1-.058-.153-.087A.416.416,0,0,0,579.344,123.21Zm9.014-.257q-.028.052-.052.106a1.5,1.5,0,0,1,.171.181l.078,0c0-.04,0-.079,0-.119A1.739,1.739,0,0,1,588.358,122.953Zm-9.4.31c0,.017,0,.051,0,.068.125.133.315.162.468.251a2.551,2.551,0,0,0,.258.259c.033.033.084.015.125.02-.006-.045,0-.1-.044-.126a4.009,4.009,0,0,1-.3-.278c-.107-.1-.278-.088-.377-.2C579.05,123.257,579.005,123.257,578.961,123.263Zm3.217.006c0,.033,0,.066,0,.1a1.071,1.071,0,0,0,.186-.01c.047-.032.1-.094.069-.153-.017-.051-.077-.03-.117-.032C582.257,123.17,582.222,123.233,582.179,123.269Zm-2.239,0a.486.486,0,0,0-.025.264,1.866,1.866,0,0,0,.117.163.932.932,0,0,1,.008.115l.188-.011.042.089c.046.077.016.17.033.254a.073.073,0,0,0,.111,0,1.6,1.6,0,0,0-.033-.251c-.06-.116-.1-.24-.16-.358-.034,0-.069,0-.1,0a.19.19,0,0,1-.057-.178.31.31,0,0,0,0-.094Zm1.432,0c-.033.033,0,.077,0,.115l.151,0c.014-.042.033-.1-.01-.128A.189.189,0,0,0,581.372,123.275Zm6.568-.084c-.009.123-.114.2-.181.293-.026-.035-.05-.072-.078-.105a.492.492,0,0,0-.089-.005c-.016.1.092.143.125.225,0,.039,0,.078,0,.117a.353.353,0,0,0-.179.059,1.848,1.848,0,0,0-.142.12.041.041,0,0,0,.045.063,1.473,1.473,0,0,0,.234-.115c.1-.039.155-.132.235-.2l-.107-.073c.066-.134.213-.189.327-.273a.181.181,0,0,1,.017.107c-.034.029-.074.048-.109.076a.8.8,0,0,0,0,.112c.042-.007.1.009.125-.032.044-.051.095-.1.138-.148,0-.025,0-.05,0-.074-.052,0-.1-.015-.155-.021-.021-.042-.025-.1-.067-.127A1.416,1.416,0,0,0,587.939,123.191Zm-6.313.191a.425.425,0,0,0-.029.274l-.081,0a1.572,1.572,0,0,0-.111-.16c0,.038-.04.079-.012.114a.646.646,0,0,1,.1.194l.14,0c0-.039,0-.079,0-.119a1.576,1.576,0,0,0,.256-.007c.081-.036.2-.084.188-.192-.1.006-.191.012-.287.013a1.19,1.19,0,0,1-.1-.116Zm-4.218.12,0,.1c.04.005.08.008.121.012a.167.167,0,0,0,.015-.1A.17.17,0,0,0,577.409,123.5Zm1.146.045a.294.294,0,0,0-.028.135.876.876,0,0,0,.127-.008c.049-.03.03-.091.034-.138A.645.645,0,0,0,578.555,123.547Zm-.826.072a.511.511,0,0,0-.007.1c.048,0,.1,0,.143,0,0-.033-.005-.066-.01-.1C577.813,123.619,577.771,123.62,577.729,123.619Zm4.474-.1a.892.892,0,0,0-.071.116.465.465,0,0,0,.006.136.247.247,0,0,0,.223.112c.106.019.17-.121.129-.2-.036-.042-.1-.045-.141-.075-.013-.028-.024-.057-.035-.085Zm-4.947.158a.655.655,0,0,1,.037.094l.087-.007c-.011-.03-.021-.06-.029-.09Zm1.592-.009a1,1,0,0,0,0,.2c.088.02.14-.061.205-.1a.469.469,0,0,0,.258.053c0-.034,0-.068,0-.1a.307.307,0,0,1-.205-.053A2.373,2.373,0,0,0,578.848,123.669Zm-.526.054-.024.027c.023.053.062.109.043.17-.038.1.026.192.013.291a2.159,2.159,0,0,1,.332.1,4.4,4.4,0,0,1,.5.158.633.633,0,0,1-.113.187,1.393,1.393,0,0,0-.121-.106.213.213,0,0,0-.081.016,1.782,1.782,0,0,1,.143.187.422.422,0,0,0,.085.033.847.847,0,0,1,.032.131.587.587,0,0,0,.1-.034.754.754,0,0,0,.031-.117.579.579,0,0,1,.068-.073c0-.043-.007-.086-.01-.128a.321.321,0,0,0,.066-.138c-.039,0-.078,0-.116,0a.449.449,0,0,0-.128-.1,1.22,1.22,0,0,0-.223-.115.791.791,0,0,1-.208-.063c.041-.034.08-.068.12-.1a.323.323,0,0,0-.145-.1.434.434,0,0,1-.189-.063.743.743,0,0,0-.011-.17Zm-.291.024,0,.083a.3.3,0,0,0,.172-.032C578.167,123.734,578.1,123.743,578.032,123.746Zm7.3-.2a.233.233,0,0,0-.065.139,1.018,1.018,0,0,0,.224.016,1.447,1.447,0,0,1,.119.09.388.388,0,0,0,.21-.034c0-.036,0-.072,0-.108a.25.25,0,0,0-.19.01.511.511,0,0,0-.026-.119C585.507,123.547,585.417,123.553,585.327,123.549Zm-7.809.327a.258.258,0,0,0,.138.044l-.007-.094-.07-.034Zm2.389-.008a.976.976,0,0,1-.108.006.92.92,0,0,1,.073.276,1.136,1.136,0,0,0-.128.291.193.193,0,0,0-.191-.049c0,.07.006.139,0,.209-.023.048-.064.083-.09.13,0,.041,0,.082,0,.123.043-.021.086-.041.131-.058a.214.214,0,0,1,.063.147.559.559,0,0,0,.076.276,1.572,1.572,0,0,1,.018.219c.055-.013.119-.026.143-.085.011-.108-.007-.216-.006-.325,0-.064.034-.122.038-.186a.5.5,0,0,0-.138-.09c0-.073-.008-.146-.008-.219.039,0,.085.007.116-.022.084-.069.187-.111.267-.186,0-.051,0-.1-.01-.152a.282.282,0,0,0-.085,0c-.055.078-.085.182-.175.226a1.3,1.3,0,0,1,.06-.3.94.94,0,0,1,.108-.279.212.212,0,0,0-.077-.017C579.962,123.828,579.936,123.851,579.907,123.868Zm-3.258.034c0,.033,0,.067,0,.1l.106,0c-.007-.033-.014-.066-.023-.1Zm5.3-.124a1.5,1.5,0,0,0,.013.282c.068.068.153-.007.207-.055a.357.357,0,0,0-.1-.2C582.036,123.769,581.986,123.78,581.945,123.778Zm-4.125.167c-.013.085.078.116.136.153.039,0,.079,0,.118,0a.454.454,0,0,0,.006-.093A.341.341,0,0,0,577.821,123.945Zm3.68-.027c0,.022,0,.066,0,.087.1,0,.2-.006.3-.009l.032-.051-.03-.05A1.775,1.775,0,0,0,581.5,123.917Zm4.351-.132-.026.051.033.05a.875.875,0,0,0,.191-.018c0-.023,0-.068,0-.09C585.982,123.782,585.917,123.784,585.852,123.785Zm.847.078c-.06.012-.116-.025-.176-.018s-.146.03-.219.043-.145.005-.218.008c0,.032,0,.063,0,.1a.674.674,0,0,0,.093.016c.2,0,.4-.019.6-.014a.965.965,0,0,1,.085-.093c.064-.019.134,0,.2-.018.035-.024.033-.067.034-.1a.6.6,0,0,0-.156,0A2.329,2.329,0,0,1,586.7,123.864Zm-4.136.16-.09-.055c-.013.043-.055.088-.031.134.01.026.023.05.035.075l.127-.081c.038.067.056.143.1.209.069.037.138-.018.181-.071a.929.929,0,0,1-.158-.175.322.322,0,0,1-.029-.162A.865.865,0,0,1,582.563,124.024Zm.247-.075a.568.568,0,0,0,.013.125.255.255,0,0,0,.184.024c.04-.012.022-.061.02-.09a1.155,1.155,0,0,1-.166-.087Zm5.662-.109c-.079.054-.164.1-.247.142a.583.583,0,0,0-.234.173.327.327,0,0,1-.184-.022c.061-.038.13-.062.194-.1a.4.4,0,0,0,.115-.2c-.094-.01-.164.065-.253.08s-.124.081-.184.124c-.036,0-.073,0-.109.006a1.5,1.5,0,0,1-.163.1,1.05,1.05,0,0,0-.26.133.377.377,0,0,1-.122.152.293.293,0,0,0,.05.159l-.031.071a.341.341,0,0,1,.189-.029,1.746,1.746,0,0,0,.155.1.34.34,0,0,1,.071-.118c.075-.078.192-.072.286-.113s.163-.121.26-.157c.057-.02.077-.082.11-.127a.954.954,0,0,1,.115.006,1.082,1.082,0,0,1,.133.082c-.074.07-.185.092-.235.188a.4.4,0,0,0,.246-.065,2.573,2.573,0,0,0,.209-.159.429.429,0,0,0,.087-.179c-.106.017-.158.116-.236.177-.035.007-.07.008-.105.012,0-.064,0-.129,0-.193a.33.33,0,0,0,.15-.082,1.236,1.236,0,0,1,.131-.126c0-.023,0-.047,0-.07A.216.216,0,0,0,588.472,123.839ZM585.45,124c0,.043,0,.085,0,.128a.8.8,0,0,1,.234.076c.04.025.071.063.111.088a.423.423,0,0,0,.188-.048c0-.03-.005-.06-.009-.089-.056-.048-.133-.05-.2-.083-.046-.031-.077-.078-.122-.11A.491.491,0,0,0,585.45,124Zm-.821.025c0,.041,0,.082,0,.123.072,0,.145,0,.217-.01C584.782,124.086,584.718,124.019,584.629,124.027Zm-7.451.2c0,.048,0,.1,0,.144a.81.81,0,0,0,.2-.022l0-.085A.367.367,0,0,0,577.178,124.23Zm4.079-.07c0,.02,0,.061,0,.081h.083l0-.085Zm-4.376.236c-.111.006-.222,0-.332.011a.329.329,0,0,0,.006.09.686.686,0,0,1,.3.043.416.416,0,0,1,.256-.05l.052-.055a.363.363,0,0,0-.158-.081C576.956,124.347,576.922,124.384,576.882,124.4Zm8.264-.265c0,.047,0,.094,0,.142l.117,0a.222.222,0,0,0,.092-.143Zm-4.106.17a.815.815,0,0,0-.161.146c.006.121,0,.243.014.364a.952.952,0,0,0,.107-.005c.067-.049.043-.136.045-.206-.008-.085.061-.148.111-.206,0-.033,0-.066,0-.1C581.115,124.3,581.078,124.3,581.041,124.3Zm1.263.062c.016.066.047.139,0,.2q-.067-.07-.132-.142c-.073.1-.193.159-.253.27a1.359,1.359,0,0,0,.212.119c.051-.02.077-.078.11-.12l.1,0a.777.777,0,0,1,.028-.119c.026-.033.059-.06.084-.095a1.167,1.167,0,0,0,0-.118l-.088-.053Zm-5.011.138a.773.773,0,0,0-.371.151c0,.074.008.148,0,.222-.028.052-.063.1-.095.151.052.078.128.145.135.244l.077.026c0,.054,0,.107,0,.161l-.074,0a.762.762,0,0,0-.17-.183,1.031,1.031,0,0,0-.136,0,1.148,1.148,0,0,1,.057.207,1.019,1.019,0,0,1-.116.063.627.627,0,0,1-.167,0,.132.132,0,0,1-.055-.1.329.329,0,0,1,.014-.181,1.335,1.335,0,0,0,.126-.245c-.006-.024-.014-.047-.021-.071l-.1,0a.352.352,0,0,0-.081.317.338.338,0,0,1-.172.013.456.456,0,0,1,.012-.251.463.463,0,0,0,.007-.191.457.457,0,0,0,.267-.052c.081.068.138.2.264.178a.4.4,0,0,0-.117-.206.667.667,0,0,1,.1-.058c0-.021,0-.042,0-.063H576.6c0,.038,0,.075,0,.113l-.1.008c-.018-.042-.029-.086-.049-.128-.06-.048-.13,0-.182.038s-.052.118-.1.164c-.03.034-.068.059-.1.09a.45.45,0,0,1-.084.317.759.759,0,0,1-.079.037,2.263,2.263,0,0,0-.062.273c.008.055.05.1.051.156,0,.077.064.131.09.2a.287.287,0,0,0,.049.089.458.458,0,0,0,.133.022.739.739,0,0,0,.056.185c.042.013.082-.011.121-.021a.661.661,0,0,1,.013-.135c.041,0,.081,0,.122,0,0,.07,0,.14.008.21a.7.7,0,0,1,.148-.029.3.3,0,0,0,.156.064c0-.033,0-.065,0-.1-.054,0-.109,0-.163,0a.654.654,0,0,1-.09-.079c0-.021,0-.063,0-.084a.408.408,0,0,0,.219.02.249.249,0,0,0-.034-.12c-.029-.021-.061-.036-.09-.056-.029-.064.058-.057.1-.075,0-.038-.006-.077-.009-.115a.27.27,0,0,1,.182.046c.012-.1-.092-.153-.152-.219.041,0,.087-.011.125.012a1.453,1.453,0,0,0,.235.106c.083.028.162-.027.242-.044,0-.034,0-.068,0-.1a.433.433,0,0,0,.161-.08,2.669,2.669,0,0,0,.272-.244c-.057,0-.114,0-.171,0,.039-.074.1-.152.19-.149a.549.549,0,0,1,.027.124.18.18,0,0,0,.11-.027.4.4,0,0,0,.144-.151,1.7,1.7,0,0,0-.006-.275.335.335,0,0,0-.112-.088.643.643,0,0,1-.1.4.055.055,0,0,1-.071-.021c.029-.064.077-.125.06-.2a.343.343,0,0,0-.164-.291C577.557,124.489,577.425,124.5,577.293,124.5Zm8.76-.24a.884.884,0,0,0,.01.11c.029.033.076.025.115.03,0-.048,0-.1,0-.144Zm-7.554.328q0,.057,0,.113a.808.808,0,0,0,.108-.01.379.379,0,0,0,.11-.171l-.058-.046Zm3.132-.17a.869.869,0,0,1,0,.145c-.034.085-.092.159-.117.248-.02.067-.088.1-.114.168a.463.463,0,0,1-.118.149.436.436,0,0,0,.034.21c.043-.032.088-.064.13-.1.058-.047.078-.125.137-.17a.555.555,0,0,1,.135-.069c.068-.007.136,0,.2-.01,0-.029,0-.057,0-.086a1.343,1.343,0,0,1-.186-.492Zm5.2-.08c0,.023,0,.047,0,.071.051,0,.1,0,.154,0q0-.038,0-.077Zm-2.479.147c-.106.032-.206.081-.314.106-.106.11-.229.2-.333.314,0,.033,0,.066,0,.1l.122,0a.862.862,0,0,1,.173-.211.622.622,0,0,1,.162-.072c.057-.029.109-.069.166-.1a.436.436,0,0,1,.279.073c.044.027.1.008.146.012a.8.8,0,0,0,.007-.176A.67.67,0,0,0,584.35,124.486Zm2.208.114c-.039.057-.019.127-.031.19a.647.647,0,0,0-.012.111c.052-.041.12-.075.133-.147.02-.1.048-.189.076-.282C586.643,124.468,586.6,124.543,586.558,124.6Zm-.611-.042a1.215,1.215,0,0,1,.029.348.7.7,0,0,0-.047.214.676.676,0,0,1,.068.226l-.081,0a.408.408,0,0,1-.1-.17c-.008-.1-.007-.2-.009-.293l-.06.006a.545.545,0,0,1,.029.218c0,.061-.034.112-.047.169a.369.369,0,0,0,.154.237c.039.005.088,0,.1-.043a.631.631,0,0,1,.218-.268c0-.152,0-.306-.017-.457a.66.66,0,0,1-.087-.073c-.019-.04-.035-.08-.052-.12Zm-.9.094a.619.619,0,0,0-.049.114c0,.066.041.125.042.19a.37.37,0,0,0,.03.185.347.347,0,0,1,.168-.031c0,.044,0,.088,0,.132-.049.045-.149.07-.133.152a.213.213,0,0,0,.2.06c.045-.037.116-.074.1-.143a.807.807,0,0,1,.019-.3.509.509,0,0,0-.166-.157c-.073-.042-.042-.155-.115-.2A.319.319,0,0,0,585.044,124.652Zm.307-.027c0,.048,0,.1.007.145.032,0,.064,0,.1-.005.036-.037.018-.1.025-.142Zm-1.036.112c.009.044-.008.1.035.13a.529.529,0,0,0,.187-.029.174.174,0,0,0-.07-.153A.5.5,0,0,0,584.315,124.737Zm2.48-.1c-.062.038-.054.111-.051.174.078,0,.165.006.216-.066q0-.051,0-.1A.351.351,0,0,0,586.794,124.632Zm-6.646.218c0,.035,0,.069-.005.1-.02.036-.051.064-.069.1a.8.8,0,0,0-.018.228.519.519,0,0,0,.178-.433Zm.942.057a1.09,1.09,0,0,0,0,.109l.134,0c.035-.033.07-.065.106-.1-.009-.035,0-.084-.035-.1A.323.323,0,0,0,581.09,124.907Zm1.383-.1a1.476,1.476,0,0,0,0,.2h.079c.041-.061.107-.127.057-.2C582.564,124.8,582.518,124.8,582.473,124.8Zm-3.09.155a.485.485,0,0,0,0,.159c.019.069.057.131.074.2a1.776,1.776,0,0,1,.007.216.3.3,0,0,0,.153.066l-.076-.01c.036.054.023.12.035.181.021.03.045.057.067.085a.51.51,0,0,0,.042-.1c.007-.049-.025-.091-.04-.136s0-.082-.011-.123-.053-.092-.074-.142c-.006-.1,0-.191-.01-.286,0-.045-.041-.076-.072-.1Q579.432,124.96,579.383,124.959Zm4.506.167a.314.314,0,0,0-.02.183l.076,0c.01-.106.094-.174.161-.247a1.641,1.641,0,0,1,.139-.117.806.806,0,0,0,0-.113A.4.4,0,0,0,583.889,125.126Zm.858-.292q0,.059,0,.119l.109,0c0-.028,0-.055,0-.083C584.823,124.854,584.785,124.843,584.747,124.834Zm-2.508.2a.334.334,0,0,0-.025.2l.051.019a1.056,1.056,0,0,0,.118-.117c0-.018,0-.036,0-.054C582.333,125.065,582.287,125.047,582.239,125.033Zm5.971-.117c0,.04,0,.08,0,.12l.123,0q0-.061,0-.122Zm-9.226.306a.211.211,0,0,0,.041.159l.1,0a.578.578,0,0,0-.02-.157Zm-.855.123a.829.829,0,0,0,.1.109c.037,0,.083.022.111-.012s.009-.083.01-.123A.388.388,0,0,0,578.129,125.346Zm8.808-.264a.282.282,0,0,0-.009.113,1.379,1.379,0,0,0,.106.115.519.519,0,0,0,.185.093c.059.024.107.069.166.094a1.323,1.323,0,0,0,.352-.02c.063-.013.134.005.189-.035a.449.449,0,0,0,.181-.164,1.075,1.075,0,0,1-.182-.221.388.388,0,0,0-.168.021,2.256,2.256,0,0,1-.3.105.28.28,0,0,1-.2-.019A.834.834,0,0,0,586.937,125.082Zm-8.614.4c.035.037.073.073.109.109l.12,0a.152.152,0,0,0-.179-.157C578.357,125.448,578.34,125.465,578.323,125.482Zm3.806-.051a.353.353,0,0,0,0,.247.209.209,0,0,0,.088.022.476.476,0,0,1,.159-.2c0-.034,0-.068,0-.1a.157.157,0,0,0-.129-.054C582.189,125.338,582.156,125.39,582.129,125.431Zm-4.09.026c0,.02,0,.061,0,.081a.133.133,0,0,0,.125.044,1.147,1.147,0,0,0-.006-.121A1.175,1.175,0,0,0,578.039,125.457Zm-.194.024c0,.034,0,.068,0,.1a.923.923,0,0,1,.2.183c.068.034.136.1.218.074,0-.071-.08-.09-.111-.143a.783.783,0,0,0-.182-.214A1.142,1.142,0,0,0,577.845,125.481Zm.813-.014c0,.037-.013.083.022.109a1.036,1.036,0,0,1,.132.165c.024.036.072.025.109.03a.57.57,0,0,0-.011-.1c-.025-.033-.057-.059-.084-.09s-.04-.083-.065-.122A.36.36,0,0,0,578.659,125.467Zm6.121-.1a.493.493,0,0,0,0,.121c.027.053.068.1.1.147s.019.125.027.187l-.077.006a.474.474,0,0,0-.122-.289h-.05c-.011.027-.045.061-.016.088a1.438,1.438,0,0,1,.162.277c.022.071.135.043.142.123a2.219,2.219,0,0,1,.066.3c0,.129.01.257.008.386a.4.4,0,0,0-.029.2.293.293,0,0,0,.156-.258,3.325,3.325,0,0,0-.031-.618c-.021-.063-.074-.109-.1-.17a.37.37,0,0,1,0-.129c.028-.034.061-.063.092-.095a.41.41,0,0,0-.076-.274c-.065.078-.039.179-.044.271a.714.714,0,0,1-.1-.316l-.052-.027A.641.641,0,0,0,584.779,125.363Zm-.589-.019c-.044.078.072.169.148.141a.123.123,0,0,0-.065-.134C584.252,125.335,584.209,125.314,584.191,125.344Zm2.027-.033a.381.381,0,0,1,.027.176,1.131,1.131,0,0,0-.4.463c-.028.048,0,.1.011.151l.059-.005a3.823,3.823,0,0,1,.312-.442c0,.043,0,.086,0,.129a.455.455,0,0,0,.147-.02.365.365,0,0,1,.168-.051.444.444,0,0,1,.12.258,1.14,1.14,0,0,0-.141-.078.778.778,0,0,0-.18.007,1.006,1.006,0,0,0-.252.222.912.912,0,0,0-.156.238c-.05.088-.02.193-.046.287a.87.87,0,0,0,.124.29c.015.026.022.061.052.074s.09.014.135.023c0-.062.015-.133-.034-.181s-.025-.083-.006-.124c.075.071.145.146.223.214a.137.137,0,0,0,.125.022,1.034,1.034,0,0,0,.186-.171c.033-.056.018-.127.033-.188.018-.085-.035-.163-.021-.247a.779.779,0,0,0,.017-.1c-.01-.046-.044-.084-.047-.133s0-.1-.005-.149l.1,0a1.49,1.49,0,0,0,.144.275c.013.1,0,.2.013.293H587a.387.387,0,0,0,.072-.143.524.524,0,0,0,.031-.231c-.039-.058-.089-.108-.134-.162l-.113.008-.047-.046a.833.833,0,0,0-.005-.13c-.043-.05-.109-.073-.155-.12a.4.4,0,0,1,.008-.09l-.081.008-.035-.053a1.593,1.593,0,0,0,.26-.284c-.1-.014-.179.065-.272.091-.044.113-.119.251-.262.237a1.057,1.057,0,0,1,.108-.208C586.325,125.386,586.272,125.349,586.218,125.311Zm-5.294.191a.254.254,0,0,0,.066.132l.057,0a.185.185,0,0,0,.03-.157A.385.385,0,0,0,580.924,125.5Zm-1.709.041c-.014.119.072.208.124.306a.469.469,0,0,1,.028.2h.078c0-.069,0-.138,0-.207s-.049-.124-.064-.19c-.008-.036-.016-.072-.025-.108Zm3.529.041h.085c.016-.053.012-.145-.064-.137C582.723,125.482,582.746,125.539,582.745,125.585Zm-.327.006c0,.041,0,.083,0,.124a.241.241,0,0,0,.191-.09l-.006-.11A.208.208,0,0,0,582.418,125.591Zm3.116-.169a.866.866,0,0,0,.067.418.765.765,0,0,0,.093-.011c.043-.033.08-.071.122-.106-.045-.045-.1-.084-.138-.132C585.642,125.525,585.613,125.445,585.533,125.422Zm2.963-.03c0,.03,0,.059,0,.089.035.006.069.015.1.025-.008.054-.019.107-.026.161.074,0,.114-.06.135-.122s-.049-.095-.083-.133S588.539,125.4,588.5,125.392Zm-10.817.423a.353.353,0,0,1,.072.234.319.319,0,0,1,.183-.022c.049.062.094.126.145.186l.1,0c0-.044,0-.089,0-.133l.175,0c0-.018-.006-.037-.009-.055a.568.568,0,0,0-.133.006.606.606,0,0,1-.248.016c-.034-.036-.053-.083-.086-.119A.676.676,0,0,0,577.679,125.814Zm4.258-.093a.381.381,0,0,0-.131.251,1.048,1.048,0,0,0,.134.053c.037.015.055-.032.075-.053.005-.08,0-.16,0-.24C581.995,125.717,581.959,125.686,581.937,125.722Zm.73-.02c0,.046,0,.092,0,.138a.708.708,0,0,0,.07.016.243.243,0,0,0,.112-.125l-.041-.053A.4.4,0,0,0,582.667,125.7Zm4.156-.11c0,.019,0,.058,0,.077l.052.025.051-.029c0-.035,0-.07,0-.105C586.888,125.569,586.855,125.58,586.823,125.592Zm-7.785.291c0,.009,0,.028,0,.037a.779.779,0,0,1,.14.224c.042.072.087.166.181.177a2.185,2.185,0,0,1-.117-.338.278.278,0,0,0-.1-.155C579.106,125.846,579.072,125.864,579.038,125.883Zm3.177-.129a.947.947,0,0,1-.069.2c-.021.044-.04.106,0,.143.024.036.073.022.11.028a.477.477,0,0,0,.124-.356A.528.528,0,0,0,582.214,125.754Zm2.171.083c-.059-.008-.117-.021-.176-.026a.407.407,0,0,0,.013.092,1.631,1.631,0,0,0,.151.084c0,.019,0,.056,0,.075a1.124,1.124,0,0,0-.133-.06l-.045.05c.005.031-.005.071.023.094a1.624,1.624,0,0,1,.208.212,1.683,1.683,0,0,1-.093.19c-.02.037.007.076.018.112l.118,0c.062-.052.047-.131.049-.2.031-.052.076-.094.106-.146a.6.6,0,0,0,0-.123l.075,0a.257.257,0,0,1,.053.15l.042,0a.3.3,0,0,0,0-.254,2.882,2.882,0,0,0-.224-.394l-.124,0C584.426,125.742,584.407,125.79,584.386,125.837Zm2.626-.218c-.008.034-.012.069-.017.1a.131.131,0,0,0,.128-.006c-.009-.03.006-.08-.033-.093Zm-9.993.387a.559.559,0,0,0,.07.113c.059.086.168.107.25.164a.341.341,0,0,0,.225.062c0-.036,0-.071,0-.107a.419.419,0,0,1-.214-.079c-.089-.08-.195-.137-.289-.21A.41.41,0,0,0,577.018,126.005Zm10.282-.366a.257.257,0,0,0-.144.2c-.007.073.052.133.045.206a.333.333,0,0,0,.044.205c.061,0,.123,0,.184-.01a.538.538,0,0,1,.122-.079,1.743,1.743,0,0,0,.365-.189c.079-.034.109-.126.191-.157,0-.027,0-.053-.005-.079-.1-.019-.161.074-.255.073a.841.841,0,0,0-.185.095c-.071.044-.158.016-.235.038-.035.012-.07.026-.1.039a.363.363,0,0,1,.088-.116c.081-.046.179-.01.265-.038a1.026,1.026,0,0,0,.231-.134.824.824,0,0,0,0-.085,1.38,1.38,0,0,0-.2.028C587.573,125.662,587.437,125.606,587.3,125.639Zm-2.04.334a2.956,2.956,0,0,1,.025.4l.082,0c0-.036,0-.072,0-.107.073-.1.143-.251.047-.357-.043-.043-.057-.111-.111-.142C585.23,125.811,585.256,125.9,585.26,125.973Zm2.974-.228c.033.038.066.075.1.112,0,.008,0,.024,0,.032-.04.019-.089.03-.113.071a.9.9,0,0,1-.323.277c0,.039,0,.079,0,.118a.45.45,0,0,0,.123-.013,2.179,2.179,0,0,1,.358-.34c.054-.032.114-.067.128-.134.013-.048.067-.124.006-.157-.036.021-.067.049-.1.071C588.355,125.76,588.3,125.689,588.234,125.745Zm-5.79.243a1.985,1.985,0,0,0,.005.243h.135a1.2,1.2,0,0,1,.141-.173c-.054-.053-.1-.11-.157-.163C582.506,125.879,582.462,125.936,582.444,125.988Zm-.775.088a1.59,1.59,0,0,1-.211.26c-.026.09.045.162.086.234-.027.042-.058.081-.08.126a.824.824,0,0,0,0,.126.579.579,0,0,1,.224-.055.616.616,0,0,0,.057-.173c-.028-.039-.066-.068-.1-.1a.233.233,0,0,1,.035-.178.652.652,0,0,0,.086-.3A.113.113,0,0,0,581.669,126.076Zm.989.2a.476.476,0,0,0-.065.242l.129,0a.636.636,0,0,1,.1-.233.573.573,0,0,0,.072-.2.14.14,0,0,0-.026-.108A3.009,3.009,0,0,0,582.658,126.272Zm-.746-.144a.812.812,0,0,0-.071.133,1.318,1.318,0,0,0,0,.176c.062,0,.143,0,.18-.06a1.071,1.071,0,0,0,.027-.216A.208.208,0,0,0,581.912,126.127Zm-4.193.136a.641.641,0,0,0,0,.126c.024.044.077.024.118.025a.319.319,0,0,0-.026-.16Zm4.511-.044a.153.153,0,0,0-.045.1c0,.062-.014.142.046.183a.128.128,0,0,0,.171.008,1.754,1.754,0,0,0,0-.305A.832.832,0,0,0,582.23,126.219Zm3.475.064c-.026.066.022.131.063.178a.5.5,0,0,0,.051-.3C585.78,126.2,585.719,126.226,585.705,126.283Zm-7.707.1a.134.134,0,0,0,0,.168c.029.043.088.018.13.026C578.132,126.5,578.1,126.369,578,126.387Zm9.693-.187c-.064.038-.142.044-.2.088-.073.06-.172.029-.257.041,0,.047,0,.095,0,.142a.314.314,0,0,0,.165-.031.362.362,0,0,1,.234-.059.294.294,0,0,1-.2.126c-.072.024-.156-.008-.222.037a.782.782,0,0,0-.275.238.3.3,0,0,0-.058.168c-.024.042-.077.024-.116.04-.065.01-.1.072-.151.1a.677.677,0,0,0-.19.086.033.033,0,0,0-.012.038.732.732,0,0,0,.082.113h.059a.339.339,0,0,1,.175-.1c.168-.015.338-.012.507-.019,0-.059.017-.117.022-.176a1.261,1.261,0,0,1-.209.056l-.052-.134a.694.694,0,0,1,.25-.029l.052-.056c-.048-.021-.1-.04-.144-.058,0-.032,0-.064,0-.1.069,0,.137-.006.206,0a.149.149,0,0,0,.1-.02,1.587,1.587,0,0,0,.377-.274l-.035-.052-.112,0a2.144,2.144,0,0,1,.2-.188c0-.018.007-.053.01-.071C587.807,126.1,587.754,126.166,587.691,126.2Zm-9.9.267a.529.529,0,0,0,.032.221.778.778,0,0,0,.116-.024.354.354,0,0,0-.049-.2Zm.869,0c-.019.03-.038.059-.057.088a.6.6,0,0,1-.153-.028c0,.021,0,.043,0,.064.057.028.111.064.17.088.039,0,.077,0,.116,0a1.107,1.107,0,0,0,.206.219,1.259,1.259,0,0,1,.181.169,1.285,1.285,0,0,0-.162.093c0,.084.094.13.088.214,0,.061.045.1.071.155.014-.037.029-.074.045-.11l.077,0c.056.087.042.2.111.283a.281.281,0,0,1,.061.158c.1.127.2.255.315.375a1.917,1.917,0,0,0,.2.224c.026.023.062.018.093.022q0-.051,0-.1l-.108-.078a.544.544,0,0,1,.068-.143,1.129,1.129,0,0,1-.141-.174.827.827,0,0,1-.007-.113,1.094,1.094,0,0,1-.185-.061c-.016.035-.034.069-.051.1l-.056-.044c0-.037-.008-.081.021-.111s.056-.059.03-.092a1.25,1.25,0,0,0-.2-.219c0-.065,0-.13,0-.195a.563.563,0,0,0-.253-.039.8.8,0,0,1-.023-.125,1.843,1.843,0,0,0,.331.033c0-.028,0-.057,0-.085-.048-.005-.112.018-.145-.028-.093-.111-.238-.16-.327-.273-.046-.06-.133-.065-.173-.131A.408.408,0,0,0,578.665,126.464Zm2.58.125c0,.045,0,.09.009.135a.13.13,0,0,0,.152-.069.972.972,0,0,0,0-.111A.234.234,0,0,0,581.245,126.589Zm.665-.058a.622.622,0,0,0-.064.092.212.212,0,0,0,.053.194.937.937,0,0,0,.121,0c.022-.08.077-.157.057-.244C582.041,126.516,581.971,126.529,581.911,126.532Zm6.181-.062.031.054a.36.36,0,0,0,.1-.015.613.613,0,0,0,.083-.1l-.037-.057C588.185,126.346,588.14,126.415,588.092,126.47Zm-11.438.257a3.183,3.183,0,0,0,.22.23.454.454,0,0,1-.146.073.555.555,0,0,0,.125.077.733.733,0,0,1,.172.015c.036.013.069-.012.1-.022-.021-.049-.04-.107-.094-.129A2.331,2.331,0,0,1,576.653,126.726Zm5.671-.087c-.057.009-.132.018-.158.079a.226.226,0,0,0,.02.226.527.527,0,0,0,.2.035c.019-.076.037-.152.062-.226.019-.036.062-.026.095-.032a1.183,1.183,0,0,0,.031.311h.075a1.141,1.141,0,0,0,.122-.284c0-.042-.019-.081-.025-.123C582.606,126.632,582.465,126.632,582.325,126.639Zm-4.652.179c0,.034,0,.068,0,.1l.1,0c0-.036,0-.071,0-.107Zm10.67-.223a1.969,1.969,0,0,1-.3.222c-.06.038-.1.106-.164.132a.7.7,0,0,0-.178.114,1.021,1.021,0,0,0,.137,0c.062-.027.105-.087.173-.1s.138-.022.179-.079a.735.735,0,0,1,.141-.136.483.483,0,0,0,.13-.2A.171.171,0,0,0,588.342,126.6Zm-.418-.036a.175.175,0,0,0-.009.1c.044,0,.088,0,.132-.01,0-.032,0-.064,0-.1Zm-3.395.231a.321.321,0,0,0,.053.237.232.232,0,0,0,.021-.246Zm3.095.006a1.4,1.4,0,0,1-.158.012c-.065.035-.046.111-.049.172a.532.532,0,0,0,.242-.079.91.91,0,0,0,.194-.177l-.065-.032C587.733,126.727,587.681,126.766,587.624,126.8Zm-6.1.256a.155.155,0,0,0,.226.145.239.239,0,0,0,.032-.3l-.184.007C581.569,126.95,581.518,126.992,581.529,127.052Zm-.365-.059a.6.6,0,0,0,.017.124c.034.115-.047.238.007.348a.168.168,0,0,0,.169.067.415.415,0,0,0,.085-.2c0-.094-.005-.188,0-.282A.515.515,0,0,0,581.164,126.993Zm4.219-.03c-.012.076.079.12.081.194a.349.349,0,0,1-.021.185c.056-.011.13.018.174-.027,0-.082,0-.164-.006-.246a.569.569,0,0,1-.147-.178A.186.186,0,0,0,585.383,126.963Zm-3.424.029a.262.262,0,0,0,.028.331c.032,0,.065,0,.1-.01a.294.294,0,0,0,.07-.147.254.254,0,0,0-.063-.18Zm.4.121c-.032.065-.088.128-.075.207,0,.046.039.077.07.106a.636.636,0,0,0,.154,0,.378.378,0,0,0,.1-.09.45.45,0,0,0,.01-.1c-.051-.038-.1-.074-.152-.116Zm2.692.006c0,.034,0,.069,0,.1l.1-.005c0-.035,0-.07,0-.1Zm-6.3.207-.042.047c0,.017,0,.034,0,.052.1.042.13.153.167.246l.059,0c.012-.032.037-.065.027-.1a1.57,1.57,0,0,0-.108-.125C578.824,127.405,578.818,127.331,578.753,127.326Zm2.864.021c-.031.035-.064.069-.092.106,0,.047-.015.11.032.14a.5.5,0,0,0,.1.062.857.857,0,0,0,.078-.106.189.189,0,0,0-.006-.2A.943.943,0,0,0,581.616,127.346Zm.305.095c-.074.041-.052.132-.052.2,0,.051.042.085.068.124l.108,0c.048-.117.155-.218.134-.355C582.092,127.411,582.008,127.432,581.922,127.441Zm2.788-.1a1.671,1.671,0,0,0-.241.165v.072a.645.645,0,0,1,.16.232l.084,0c0-.069-.007-.137,0-.205a.515.515,0,0,1,.067-.154.693.693,0,0,0-.006-.107Zm-7,.417c-.048.031-.048.094-.065.143a1.036,1.036,0,0,1,.287-.033.448.448,0,0,0,.037-.244l-.051-.007A1.979,1.979,0,0,1,577.708,127.758Zm.735-.155c-.012.085.054.141.106.2l.121,0c-.007-.026,0-.058-.027-.076C578.585,127.668,578.53,127.6,578.443,127.6Zm9.9-.009c0,.017,0,.034,0,.051a.73.73,0,0,0,.082,0,.938.938,0,0,0,.049-.111,1.826,1.826,0,0,0,.213-.032.389.389,0,0,0-.048-.114C588.521,127.416,588.453,127.532,588.346,127.594Zm-2.666-.073c0,.027,0,.055.008.082s.047.022.073.017c.037-.027.069-.059.1-.088l-.026-.052A.363.363,0,0,0,585.68,127.521Zm-4.57.295a.449.449,0,0,0,.154.221c.041.046.106.035.161.029a.669.669,0,0,0,.119-.177.268.268,0,0,0,.013-.128c-.053-.051-.1-.1-.159-.152a.543.543,0,0,0-.132,0A.435.435,0,0,0,581.11,127.816Zm1.127-.217c0,.058,0,.116,0,.174a.251.251,0,0,0,.194.039.317.317,0,0,0,.079-.219C582.421,127.591,582.329,127.594,582.237,127.6Zm2.836.151a.569.569,0,0,1,.13.182c.012.051.058.079.1.106l.052-.043c0-.037-.005-.073-.008-.11a.139.139,0,0,0,.064-.118c-.052,0-.1,0-.155,0a.807.807,0,0,0-.161-.2A.3.3,0,0,0,585.073,127.75Zm3.635-.226c0,.038,0,.075,0,.113.079,0,.157-.007.236,0,.053.028.03.1.037.144a.282.282,0,0,0,.179.242,1.226,1.226,0,0,0-.123.2c0,.082,0,.164,0,.246.013.016.042.018.061.029a.6.6,0,0,1,.1-.246l.075.071a1.922,1.922,0,0,1,0,.195c-.024.071-.042.144-.065.216a.8.8,0,0,1-.112-.017.575.575,0,0,1-.126.261.255.255,0,0,1-.028-.192c.028-.051.064-.1.095-.146l-.061-.047a.494.494,0,0,1-.154.22c0,.039,0,.078,0,.118.029.025.059.05.087.076.01.12-.108.184-.16.277a2.13,2.13,0,0,1-.25.309c-.027.028-.019.07-.023.105a2.125,2.125,0,0,0,.378-.382,2.321,2.321,0,0,0,.2-.363.764.764,0,0,1,.134.015.531.531,0,0,0,.1-.177,2.863,2.863,0,0,0,.155-.515.525.525,0,0,1-.158-.155.84.84,0,0,0-.124-.167c.018-.131-.057-.248-.069-.376a.207.207,0,0,1-.082.039c-.081.012-.132-.067-.2-.092C588.772,127.52,588.74,127.523,588.708,127.523Zm-10.565.3,0,.1h.094l.028-.082A.375.375,0,0,0,578.143,127.823Zm3.565-.092a.489.489,0,0,1-.106.211.86.86,0,0,0,0,.207.449.449,0,0,0,.1.127c.1,0,.15-.105.2-.177a.617.617,0,0,0,0-.175c-.031-.067-.071-.129-.1-.2Zm2.541.038a.267.267,0,0,0,.041.206.675.675,0,0,0,.12-.012.62.62,0,0,0,.129-.127c-.037-.041-.074-.081-.109-.123C584.365,127.718,584.289,127.706,584.249,127.769Zm1.577-.046c0,.036,0,.071,0,.107.076-.01.176.026.231-.043.032-.025,0-.066,0-.1A.531.531,0,0,0,585.826,127.723Zm-10.327.4a.941.941,0,0,1-.019.227.415.415,0,0,0,.088.369c.044.066.121.1.152.18s.128.1.2.138c-.031.031-.064.061-.094.093s.016.072.04.094a.952.952,0,0,0,.25.145.777.777,0,0,0,.336.05.569.569,0,0,0,0-.109.594.594,0,0,0-.412-.111c.028-.042.057-.084.084-.126-.008-.031-.018-.061-.028-.091a.558.558,0,0,0,.157-.266c-.035-.016-.07-.031-.106-.045l-.011-.051a.332.332,0,0,1,.18-.047c0-.033,0-.066,0-.1-.109-.052-.229-.012-.344-.025l.089.009c-.077.034-.178.05-.218.133-.037.057-.015.127-.016.191l-.119.006c0-.048,0-.1-.006-.143l-.081-.092c.006-.091-.037-.2.037-.273a.843.843,0,0,0,.175.046c-.017-.115-.038-.228-.056-.343C575.685,128.028,575.609,128.116,575.5,128.119Zm7.074-.314c0,.08.009.16,0,.239-.022.053-.073.085-.1.132a.428.428,0,0,0,.043.266.341.341,0,0,0,.272-.109.382.382,0,0,0,.043-.236,1.894,1.894,0,0,1-.151-.292Zm2.915-.078c.013.031.027.062.039.094h.048c0-.033,0-.066,0-.1Zm-9.408.288c-.07.013-.158-.016-.214.04a.526.526,0,0,0,0,.146.477.477,0,0,0,.159-.022,1.145,1.145,0,0,1,.368-.03c.068-.007.119.047.179.069.033,0,.067,0,.1,0v-.059a.883.883,0,0,1-.179-.125A.743.743,0,0,0,576.08,128.015Zm5.976-.178a.413.413,0,0,0,.013.282.245.245,0,0,0,.185.06c.064-.026.124-.061.188-.086.006-.034.015-.067.018-.1a.71.71,0,0,0-.043-.081,1.247,1.247,0,0,1-.159,0c-.033-.02-.061-.048-.093-.07A.81.81,0,0,0,582.056,127.837Zm1.877-.02a.356.356,0,0,0-.031.161.609.609,0,0,1,.183.021.364.364,0,0,0,.026-.17.775.775,0,0,0-.138-.04A.035.035,0,0,0,583.933,127.816Zm-6.673.191c0,.074,0,.147.01.221.035.055.095.086.136.136a.571.571,0,0,0,.526.163.977.977,0,0,0,0-.116.564.564,0,0,1-.2-.02,1.276,1.276,0,0,0-.151-.08c-.04-.019-.094-.027-.114-.071a1.024,1.024,0,0,0-.147-.265Zm2.049-.06c-.012.051-.025.1-.04.151l.134.062c.016.1.121.149.131.247a.261.261,0,0,1,.153.1c0,.074-.047.14-.039.216-.085-.018-.123-.109-.192-.154-.011-.039-.022-.078-.03-.117l-.106,0q0,.054,0,.108c.045.021.1.029.132.072a1.512,1.512,0,0,0,.086.163c.038.064.108.1.148.161a.664.664,0,0,0,.1.106q-.033.052-.07.1a1.031,1.031,0,0,1,.22.2c.032.043.088.05.136.068a.4.4,0,0,1,.01.135l-.163,0c.018.043.027.1.072.12.077.039.138.126.234.1,0-.09-.124-.087-.135-.172.079,0,.159,0,.237-.006a.255.255,0,0,0-.023-.154c-.037-.063-.121-.044-.181-.05a1.522,1.522,0,0,1-.242-.2,1.688,1.688,0,0,0-.04-.311c.036-.033.108-.056.078-.116a.818.818,0,0,1-.152-.125c-.056-.061.006-.161-.053-.22a3.079,3.079,0,0,1-.217-.3,1.755,1.755,0,0,1-.111-.16C579.374,127.946,579.337,127.954,579.31,127.948Zm-1.32.075a.876.876,0,0,0,.009.1c.047.041.116.012.173.019a.452.452,0,0,0,.025-.121C578.127,128.017,578.058,128.02,577.99,128.023Zm.454.221c.069.053.157-.008.227-.033.024.032.047.066.068.1a.42.42,0,0,1,.078-.059c.125-.023.25.023.375.006q0-.042,0-.084c-.037-.019-.073-.041-.111-.058a1.3,1.3,0,0,0-.163,0,1.627,1.627,0,0,0-.158-.067.869.869,0,0,1-.222-.016C578.426,128,578.35,128.181,578.444,128.244Zm2.486-.3c-.091.066-.166.151-.257.217.018.117-.063.221-.048.337a.517.517,0,0,0,.084.108c.087-.012.19.015.262-.048.034-.027.073-.059.062-.108a.273.273,0,0,0-.067-.218c.03-.051.062-.1.091-.152a.569.569,0,0,0,0-.15A1.025,1.025,0,0,0,580.93,127.948Zm-.758.1c0,.158.007.315.01.472.053.049.1.1.15.154a.836.836,0,0,0,.186,0,3.748,3.748,0,0,1,0-.394c0-.073.082-.121.063-.2a.735.735,0,0,0-.156-.1A.276.276,0,0,0,580.171,128.048Zm3.339.114a.286.286,0,0,0-.02.154c.04.024.076.067.127.06a.313.313,0,0,0,.208-.094.26.26,0,0,0-.035-.337c-.025-.027-.064-.016-.1-.021C583.645,128.013,583.56,128.074,583.511,128.162Zm-2.408-.03a.306.306,0,0,0,.14.283c.026,0,.051,0,.077,0a.27.27,0,0,0,.068-.212A2.473,2.473,0,0,0,581.1,128.132Zm3.013-.006c0,.021,0,.062.006.083l.216-.009c0-.039,0-.078,0-.117a.481.481,0,0,0-.056-.039C584.213,128.035,584.168,128.094,584.116,128.126Zm-5.942.142c0,.037,0,.074,0,.112l.064.1c-.033.027-.066.053-.1.082a.3.3,0,0,0,.032.159.712.712,0,0,1,.066.169,1.125,1.125,0,0,0,.155.149c.063,0,.127,0,.19-.008l-.022-.057a.583.583,0,0,1-.237-.18c0-.034,0-.069,0-.1,0-.078.058-.144.055-.223s0-.138-.008-.207C578.3,128.263,578.239,128.265,578.174,128.268Zm3.779-.079a2.153,2.153,0,0,1-.033.278.711.711,0,0,0,.1.219c.046-.008.111.015.139-.032s.069-.12.111-.174a.131.131,0,0,0-.039-.2c-.04-.009-.082,0-.122-.01-.026-.028-.05-.057-.074-.087Zm2.552-.064c-.016.054.038.075.082.076,0-.033,0-.066,0-.1C584.56,128.105,584.5,128.081,584.5,128.125Zm.365-.035a.484.484,0,0,0,.024.155h.083c0-.054,0-.109-.005-.163A.773.773,0,0,0,584.87,128.09Zm.337.044c-.049.033-.017.1-.022.152.018.045.072.021.108.022s.028-.05.028-.079A.091.091,0,0,0,585.206,128.135Zm-2.256.117c0,.025-.011.049-.014.074-.019.112.081.191.106.293h.092a.942.942,0,0,0,.128-.161.923.923,0,0,0,0-.11A.694.694,0,0,0,582.95,128.252Zm-1.464.059c0,.107,0,.215.009.322a.128.128,0,0,0,.03.082,1.634,1.634,0,0,0,.221,0,.786.786,0,0,0,.074-.12.6.6,0,0,0,0-.178c-.043-.068-.132-.051-.193-.092C581.583,128.3,581.532,128.313,581.486,128.311Zm2.467,0c-.066.061-.125.129-.187.194a.046.046,0,0,0,0,.076.375.375,0,0,0,.152.09.8.8,0,0,0,.2-.048c0-.087,0-.175-.01-.262C584.072,128.317,584,128.261,583.953,128.309Zm1.035.024a.627.627,0,0,0,.02.133,1.5,1.5,0,0,1,.014.173.939.939,0,0,1,.078.124,1.4,1.4,0,0,1,.127.281h.075c.026-.048.053-.1.078-.144a.622.622,0,0,0,.117.136c.039,0,.078,0,.117,0l0-.074a.717.717,0,0,1-.2-.254h-.08a.555.555,0,0,1-.02.127l-.074-.031c0-.047,0-.095-.008-.141-.053-.033-.132-.054-.136-.128s.043-.111.08-.157l-.033-.049C585.091,128.333,585.04,128.333,584.988,128.334Zm-3.873.188c-.012.069-.039.134-.045.2a.343.343,0,0,0,.066.236.578.578,0,0,0,.119-.007.27.27,0,0,0,.131-.262c0-.056.005-.125-.045-.163C581.276,128.476,581.189,128.507,581.115,128.522Zm3.149-.109c0,.052,0,.1,0,.155h.081l-.007-.158Zm-1.676.161c-.049-.015-.1-.047-.15-.033a.213.213,0,0,0-.091.159c.051.082.158.136.148.248-.038,0-.076,0-.113-.005a.408.408,0,0,1-.12-.164l-.034,0c-.01.018-.018.036-.027.055.023.053.064.1.089.147a.739.739,0,0,0,.1.19c.045.055.111.108.094.188s-.041.14-.06.21c-.048.091-.157.158-.16.269a1.222,1.222,0,0,1,.116.117c.05.065.145.05.217.044a.131.131,0,0,0,.089-.125.537.537,0,0,0-.02-.2c-.023-.056-.029-.118-.051-.174a.462.462,0,0,0-.079-.062c0-.018,0-.054,0-.072.064-.024.133-.036.2-.066a.185.185,0,0,0,.072-.163c0-.046,0-.132-.068-.124-.074-.006-.183.045-.216-.049a.953.953,0,0,0,.218-.072c.048-.037.06-.1.086-.153a.506.506,0,0,0,.06-.18.209.209,0,0,0-.058-.086C582.735,128.489,582.682,128.593,582.588,128.574Zm2.757-.176c-.058.067-.146.127-.14.226.028-.01.065,0,.085-.025a.092.092,0,0,1,.092-.042c.057.035.058.11.092.161a.4.4,0,0,0,.1.063.481.481,0,0,0,.212.02c0-.033,0-.066-.006-.1-.039-.008-.079-.016-.117-.026-.052-.035-.091-.09-.153-.111s-.072-.107-.093-.166Zm-7.485.25a.362.362,0,0,0,0,.087c.035.039.09.02.136.026a.129.129,0,0,0,0-.122C577.951,128.642,577.905,128.642,577.86,128.647Zm.613.022c0,.036,0,.072,0,.108l.079.031a.111.111,0,0,0-.006-.171Zm4.849-.156c0,.1,0,.2.009.3a.51.51,0,0,0,.173.139.625.625,0,0,0,.149,0,.4.4,0,0,0,.08-.091.443.443,0,0,0,0-.134c-.038-.055-.078-.11-.119-.162C583.545,128.474,583.419,128.517,583.322,128.514Zm1.178-.03c-.031.039-.018.091-.023.137l.124,0a.21.21,0,0,0-.009-.143C584.56,128.478,584.53,128.48,584.5,128.484Zm-8.248.386a.143.143,0,0,0,.136.051c0-.036,0-.072-.005-.108A.172.172,0,0,0,576.252,128.87Zm4.4-.1c-.068.048-.047.146-.044.218a1,1,0,0,0,.118.2.886.886,0,0,0,.115-.008.4.4,0,0,0,.148-.165.861.861,0,0,0-.03-.3C580.849,128.705,580.755,128.769,580.648,128.766Zm-1.315.118q-.012.091-.019.183a.563.563,0,0,1-.206.09c-.063.014-.1.085-.172.076a1.944,1.944,0,0,1-.333-.006c-.034-.012-.062.016-.092.027a.772.772,0,0,1,.051.119q.074,0,.148,0c0,.034,0,.067,0,.1q-.082,0-.163.008a.628.628,0,0,0,.038.077c.03.047.09.023.136.026a.654.654,0,0,1,.05-.131.642.642,0,0,1,.14-.01c.063,0,.117.036.179.042l.043-.05a.581.581,0,0,1-.054-.141.394.394,0,0,1,.214-.056c.035.032.074.06.111.09s.045.1.081.137c.077.087.165.165.25.244.111.077.172.2.28.283.058.053.149.033.21.082a.489.489,0,0,1-.015.228l.053.061.106-.117c.05.006.1.018.148.027a1.1,1.1,0,0,0,.064-.143c.092-.009.194.021.277-.029.057-.038.042-.115.038-.173a.587.587,0,0,0-.106-.169.6.6,0,0,0-.087.009.483.483,0,0,0-.131.144.974.974,0,0,0,0,.1,1.833,1.833,0,0,0-.217.154,1.354,1.354,0,0,1-.018-.221c.06-.021.119-.042.178-.065a.343.343,0,0,0-.05-.158.8.8,0,0,0-.1.055c-.024.049-.036.1-.061.152a.462.462,0,0,1-.241-.045,1.583,1.583,0,0,0-.247-.137,1.456,1.456,0,0,0-.352-.45.748.748,0,0,1-.015-.138.693.693,0,0,1,.142-.05,1.618,1.618,0,0,0-.1-.147.737.737,0,0,0-.095-.142C579.373,128.841,579.343,128.856,579.333,128.884Zm.925-.054c-.054,0-.119,0-.156.045a1.75,1.75,0,0,0-.063.168.213.213,0,0,0,.062.224.33.33,0,0,0,.25.039c.063-.042.118-.1.179-.141a.928.928,0,0,0-.062-.28c-.009-.048-.057-.075-.1-.1C580.33,128.789,580.3,128.831,580.258,128.83Zm1.389.067a2.128,2.128,0,0,0,.174.241.853.853,0,0,0,.143-.008.309.309,0,0,0,.122-.291.288.288,0,0,0-.208-.077A.3.3,0,0,0,581.646,128.9Zm1.238-.1a.731.731,0,0,0,.01.116.426.426,0,0,0,.15.162c.056.006.124.014.162-.037.087-.066.043-.184.045-.276a.537.537,0,0,1-.227-.029C582.966,128.712,582.924,128.768,582.885,128.8Zm-6.46.15a.269.269,0,0,0-.016.184c.021.054.088.022.132.03l.046-.048a.549.549,0,0,0-.029-.172C576.513,128.947,576.469,128.946,576.424,128.951Zm7.808-.214c0,.021,0,.064,0,.085a.172.172,0,0,0,.142.036q0-.061,0-.121Zm-2.98.363a.665.665,0,0,0,.175.295h.165a.769.769,0,0,0,.1-.132c.015-.071-.031-.129-.062-.187a.413.413,0,0,1-.028-.15.856.856,0,0,0-.106-.1A.939.939,0,0,1,581.253,129.1Zm5.593-.234a.476.476,0,0,0,.116-.01.48.48,0,0,0,.081-.106.214.214,0,0,0-.108-.051A.383.383,0,0,0,586.846,128.865Zm-2.914-.063c-.063.07-.13.136-.19.209-.029.029-.019.073-.025.109.056.059.137.03.208.037a.334.334,0,0,0,.159.033.23.23,0,0,0,.086-.277A.282.282,0,0,0,583.932,128.8Zm.554.042c-.021.031-.057.058-.054.1s-.009.1.041.119c.045.04.1-.011.13-.043a.862.862,0,0,0,0-.118A.241.241,0,0,0,584.487,128.844Zm.29,0c.01.055.021.109.027.164l.053.006a.362.362,0,0,0-.028-.171Zm-6.711.289a.38.38,0,0,0-.16.136c.035.026.069.053.106.075.06.04.136.011.2.021a1.191,1.191,0,0,1,.108.085.49.49,0,0,0-.022.127.5.5,0,0,0,.128-.028.509.509,0,0,1-.05-.161c-.005-.029,0-.067-.025-.085a.979.979,0,0,1-.171-.15,1,1,0,0,1-.007-.121A.228.228,0,0,1,578.066,129.136Zm-1.327.029a.459.459,0,0,0,0,.118.988.988,0,0,0,.167.12,1.024,1.024,0,0,0,.109,0c.015-.108-.057-.2-.091-.291A.237.237,0,0,0,576.739,129.165Zm4.318-.071a.741.741,0,0,0-.06.128c0,.049,0,.1,0,.147a1.962,1.962,0,0,1-.089.19.518.518,0,0,0,.006.141,1.845,1.845,0,0,1,.145.28.445.445,0,0,0,.14.019c.06,0,.086-.06.115-.1a.63.63,0,0,0,.089-.374c-.037-.076-.123-.116-.176-.181-.055-.046-.058-.123-.1-.176C581.1,129.141,581.08,129.118,581.057,129.094Zm.951.124c-.045.038-.114.079-.089.149a1.762,1.762,0,0,0,.148.263c.073-.006.168.023.224-.036a2.2,2.2,0,0,0,0-.327c-.023-.075-.051-.164-.134-.19A1.327,1.327,0,0,1,582.008,129.219Zm1.3-.164-.028.025a.737.737,0,0,0,.072.329c.08.086.23.154.329.06,0-.11-.007-.22-.009-.33A.742.742,0,0,0,583.307,129.054Zm-6.18.186a.541.541,0,0,0,.008.1l.127-.005c0-.033,0-.066,0-.1Zm7.956-.192c.009.044.02.087.031.13l.1,0c0-.04,0-.079,0-.119l-.069-.045Zm-.8.042a.267.267,0,0,0,.012.085.676.676,0,0,0,.063.049c0-.046,0-.092,0-.138Zm-6.672.195-.035.051.037.05c.059,0,.118,0,.177-.008-.007-.033-.015-.066-.025-.1Zm-1.079.079a.39.39,0,0,0,.048.245c.035-.008.082,0,.1-.034s.029-.078.026-.119C576.707,129.374,576.6,129.283,576.531,129.363Zm3.93,0c-.008.108.006.216.006.324.084,0,.168,0,.253-.006a1.288,1.288,0,0,0,.13-.262.3.3,0,0,0,.009-.14c-.089.012-.168-.044-.255-.038A.392.392,0,0,0,580.462,129.366Zm2.458-.213a.474.474,0,0,0-.065.165.714.714,0,0,1-.088.1c.008.062-.01.132.03.185.069.105.139.248.285.25a.209.209,0,0,0,.194-.1c.015-.053,0-.108.007-.161a.388.388,0,0,0,.011-.128,1.417,1.417,0,0,1-.1-.118c-.027-.047-.049-.1-.1-.127S582.979,129.175,582.92,129.153Zm2.308.191.06.045a.163.163,0,0,0-.012-.223C585.221,129.212,585.227,129.281,585.228,129.345Zm-.769-.018a.428.428,0,0,0,.052.215l.1,0a.606.606,0,0,0,.04-.092,1.151,1.151,0,0,0-.058-.2A.819.819,0,0,0,584.46,129.326Zm-7.656.174a.557.557,0,0,0,.033.243,1.126,1.126,0,0,1,.215.18,1.486,1.486,0,0,0,.144-.07c.059-.008.1.044.151.068a.738.738,0,0,1,.212-.019l.069.1c.047-.033.09-.1.155-.08s.13.082.209.067a.255.255,0,0,0-.042-.087c-.04-.027-.087-.041-.125-.071a.387.387,0,0,1-.071-.115c-.008-.052,0-.1-.009-.156-.028-.031-.073-.018-.11-.023a.423.423,0,0,0,.055.329l-.108,0a.692.692,0,0,1-.067-.315c-.112.007-.132.134-.176.213a.147.147,0,0,1-.032-.108c0-.047.042-.11-.014-.139a.122.122,0,0,0-.161.052c0,.06.061.106.044.169l-.071.008a.372.372,0,0,1-.052-.225A.309.309,0,0,0,576.8,129.5Zm4.817-.005c-.044.014-.107.022-.114.079a.786.786,0,0,1-.012.223c-.025.084.045.155.115.189a.267.267,0,0,0,.29-.008c0-.046,0-.093,0-.139a1.243,1.243,0,0,1-.027-.152c0-.039.021-.076.018-.115a.364.364,0,0,0-.087-.176A.649.649,0,0,1,581.621,129.5Zm2.119.016a.088.088,0,0,0-.01.1.539.539,0,0,0,.172.2.463.463,0,0,0,.247-.043.965.965,0,0,1,.008-.263.184.184,0,0,0-.1-.173.783.783,0,0,0-.21.006C583.806,129.388,583.778,129.453,583.739,129.511Zm3.995-.287-.04.03a.577.577,0,0,0,.006.06c.03.033.082.039.107.078a.219.219,0,0,1,.052.116c.011.06-.055.09-.085.131a.485.485,0,0,0,.1.059.693.693,0,0,0,.154-.094.865.865,0,0,1,.1-.011c.018.034.036.068.053.1.033-.017.068-.031.1-.051.037-.042.053-.1.1-.133a.278.278,0,0,0,.108-.1.113.113,0,0,0-.092-.049.2.2,0,0,1-.125-.076c-.112.021-.171.137-.282.163l0-.092a.516.516,0,0,0,.15-.119c-.093-.018-.151.079-.243.072-.01-.029-.02-.057-.029-.086Zm-9.926.33a.44.44,0,0,0,.129.182c.033.024.075.018.113.03.068.022.131.058.2.081.117,0,.235,0,.353-.006a.15.15,0,0,0,.043-.144c-.1,0-.2.032-.286-.028a1.537,1.537,0,0,0-.254-.166A.31.31,0,0,0,577.808,129.555Zm-1.72.1a.239.239,0,0,0,.144.159.868.868,0,0,1,.2.1.845.845,0,0,0,.2,0c-.01-.029,0-.071-.036-.084-.074-.042-.171-.005-.237-.067A.5.5,0,0,0,576.088,129.653Zm8.23-.2a.263.263,0,0,0-.018.138h.064a.132.132,0,0,0,0-.133Zm1.056.009-.029.052.032.05c.043,0,.087,0,.13-.007a.425.425,0,0,0,0-.1Zm-6.3.172a.356.356,0,0,0,.315.414c.029,0,.058.007.087.009q0-.051,0-.1a.937.937,0,0,1-.181-.151.692.692,0,0,1-.08-.176Zm7.528-.021a1.149,1.149,0,0,0-.276.128,1.2,1.2,0,0,0-.16.016c-.043.026-.077.063-.118.091-.074.019-.148-.033-.221-.007a.506.506,0,0,0-.116.064c0,.037,0,.074,0,.111.107,0,.21-.033.317-.032a1.544,1.544,0,0,0,.223-.117c.039-.012.08-.019.12-.03s.087-.055.133-.077a.45.45,0,0,1,.2-.025c.007-.034.016-.067.026-.1a1.135,1.135,0,0,1,.114,0,.56.56,0,0,1,0,.167c-.046.012-.092.02-.137.033s-.094.077-.149.1a2.514,2.514,0,0,1-.245.068.282.282,0,0,0-.117.092.871.871,0,0,1-.2-.012c-.05.013-.1.032-.149.043.008.03.013.068.045.083a.718.718,0,0,0,.379-.041.234.234,0,0,1,.152.027c.05-.03.117-.048.141-.107a.352.352,0,0,0,.016-.146h.117c0,.051,0,.1,0,.154a.448.448,0,0,0,.135-.064c.08-.067.194-.066.276-.132a.608.608,0,0,1,.209-.1.316.316,0,0,0,.14-.125c-.083-.046-.166.018-.249.034s-.127.128-.227.114c-.034-.045-.088-.087-.085-.148s0-.119-.006-.179l-.132,0C586.714,129.548,586.671,129.6,586.6,129.609Zm-7.716.142c0,.039,0,.077,0,.116l.1,0c0-.039,0-.077,0-.116Zm4.518-.117c-.049.036-.048.1-.064.155s-.057.115-.034.176c.066.1.207.1.275.2l.152-.006a2.464,2.464,0,0,0,.031-.283c-.065-.083-.116-.177-.182-.259A1.041,1.041,0,0,0,583.406,129.634Zm1.646.132c.03-.015.1.014.1-.04.01-.045-.021-.076-.052-.1A.13.13,0,0,0,585.052,129.766Zm-3.026,0c0,.049,0,.1,0,.146a.552.552,0,0,1-.128.213.691.691,0,0,0,.01.118,1.16,1.16,0,0,0,.165.142,1.451,1.451,0,0,0,.174,0,1.384,1.384,0,0,0,.008-.323c.008-.119-.1-.2-.146-.3ZM578.47,130c0,.032,0,.063,0,.1l.1,0a.358.358,0,0,1,.138-.126c0-.02,0-.06,0-.08C578.607,129.875,578.548,129.957,578.47,130Zm-1.583.054a1.878,1.878,0,0,0-.174.137.538.538,0,0,0,.2.02c.071-.015.133.059.2.027s.178-.006.263-.032a.281.281,0,0,1,.2.029q.036-.041.074-.08c0-.018,0-.036-.005-.053a.548.548,0,0,1-.2-.02c-.064-.034-.136,0-.2-.01a1.6,1.6,0,0,0-.2-.092A.256.256,0,0,0,576.887,130.052Zm5.908-.215c-.06.082-.063.19-.132.267a.252.252,0,0,0,.059.239c.05-.007.108.006.151-.027a.284.284,0,0,0,.087-.1c.021-.086-.022-.172-.019-.258a.21.21,0,0,0-.042-.126Zm-3.817.179c-.026.024-.053.046-.078.072a1.1,1.1,0,0,0,0,.114c.043-.01.1.01.129-.036s.025-.1.029-.15Zm2.364-.009c0,.106.006.212.008.317a.855.855,0,0,0,.114.049c.076.019.087-.084.12-.13s.075-.018.106,0a.7.7,0,0,0-.048.249c0,.1.049.2.051.3.042.011.086.045.131.024a.407.407,0,0,0,.13-.08.429.429,0,0,0,.058-.246,1.057,1.057,0,0,1-.2-.222c-.162-.057-.25-.223-.4-.3Zm6.846-.111.056.025c.026-.017.053-.033.081-.048,0-.03,0-.061,0-.091A.141.141,0,0,0,588.188,129.9Zm-5.107.072a.531.531,0,0,0-.04.2c.005.081,0,.163,0,.245.053.034.1.078.15.112.1.013.152-.1.2-.167-.043-.09-.069-.186-.115-.274-.043-.041-.092-.075-.134-.117Zm4.485-.02a.692.692,0,0,0-.064.113l-.1,0c0-.042,0-.084,0-.125a.552.552,0,0,0-.186.067c-.109.069-.229.119-.343.18a2.565,2.565,0,0,0-.276.059l.036.088a1.36,1.36,0,0,0,.151-.006c.08-.026.144-.087.228-.107s.154-.059.228-.026c.086.053.191,0,.281.036a.442.442,0,0,1-.024-.116.333.333,0,0,1,.194.054.287.287,0,0,0,.187-.091.6.6,0,0,0,.124-.212,1.138,1.138,0,0,1-.216.1c0-.044,0-.087,0-.131A1.771,1.771,0,0,0,587.566,129.948Zm-8.919.136c0,.02,0,.059,0,.078l.052.027.05-.028c0-.02,0-.059,0-.079Zm5.215-.139a1.034,1.034,0,0,0,.006.105c.023.063.095.117.16.077s.029-.116.033-.174A.422.422,0,0,0,583.861,129.945Zm.484.081c0,.039,0,.078,0,.117.047.013.11.037.146-.01a.153.153,0,0,0,.046-.132.184.184,0,0,0-.106-.032C584.4,129.968,584.374,130,584.345,130.025Zm.436.037a.238.238,0,0,0-.145-.067c0,.041,0,.083,0,.124l.115-.01c.026.033.051.066.078.1h.046a.292.292,0,0,0,.063-.234C584.884,130,584.832,130.03,584.781,130.063Zm-3.86.1c0,.127.033.25.027.377l.068.064a.363.363,0,0,0,.124-.012.614.614,0,0,0,.053-.408c0-.042-.038-.065-.062-.093A.287.287,0,0,0,580.921,130.163Zm-3,.061c-.065.045-.074.132-.1.2-.082-.039-.176-.1-.263-.032a.711.711,0,0,0,.364.122l.043-.048c0-.045,0-.09-.007-.135l.053.005c.014.045.032.089.049.133l.073,0a1.147,1.147,0,0,0,.121-.256l-.038-.016A1.565,1.565,0,0,1,577.923,130.224Zm.474-.017q0,.061,0,.122l.122,0c0-.04,0-.081,0-.121Zm4.006-.087a.643.643,0,0,0-.053.087c0,.078,0,.155.007.233a.238.238,0,0,0,.116.207c.063.037.14-.031.133-.1s0-.142-.007-.213c-.032-.076-.079-.145-.112-.22Zm-5,.214c0,.032,0,.064,0,.1h.08c0-.035,0-.07,0-.105Zm3.246-.035c-.077.052-.076.154-.086.237l.212-.006a.248.248,0,0,0,0-.27A.173.173,0,0,0,580.65,130.3Zm3.588.041a.778.778,0,0,0,.118,0,.163.163,0,0,0-.052-.135C584.261,130.235,584.213,130.278,584.238,130.339Zm-.5-.084c0,.052,0,.1.006.157.036-.005.077.009.109-.013a.211.211,0,0,0-.016-.148Zm-.305.028a.422.422,0,0,0,.115.348c.028-.025.057-.049.083-.077.033-.094-.048-.166-.085-.245C583.527,130.257,583.467,130.287,583.429,130.282Zm-3.079.129c0,.025,0,.074,0,.1.033.006.066.01.1.015,0-.043,0-.086,0-.129Zm.956.071a.164.164,0,0,0-.046.139c.008.051-.013.118.035.154s.109.024.163.022a.147.147,0,0,0,.073-.126c0-.058.012-.138-.051-.169A.236.236,0,0,0,581.306,130.483Zm1.388.193a.549.549,0,0,0,.125.214.65.65,0,0,0,.164,0,.722.722,0,0,0,.029-.324.242.242,0,0,0-.09-.113.518.518,0,0,0-.133,0A.238.238,0,0,0,582.694,130.676Zm-2.218-.077c0,.057,0,.114,0,.171l.1,0a.77.77,0,0,0-.014-.173Zm1.662-.046a.432.432,0,0,0-.07.086c-.013.07.051.114.095.157a.457.457,0,0,0,.127,0,.646.646,0,0,0-.048-.257A.853.853,0,0,0,582.138,130.553Zm2.164.067.076.052c.051-.04.045-.1.041-.16-.031,0-.061,0-.091,0C584.292,130.535,584.306,130.581,584.3,130.619Zm.266-.1a.271.271,0,0,0-.027.171h.08a.306.306,0,0,0,.026-.171Zm-3.529.231a.216.216,0,0,0,.042.152h.066a.324.324,0,0,0,.023-.175c-.023-.014-.046-.029-.07-.042A.267.267,0,0,0,581.038,130.754Zm1.505.105a.573.573,0,0,0,.051.142l.084,0a1.192,1.192,0,0,0-.008-.158.546.546,0,0,0-.066-.083A1.022,1.022,0,0,0,582.543,130.86Zm1.108-.16c0,.021,0,.064,0,.085a.291.291,0,0,0,.14-.031l-.041-.059Zm-2.168.224c0,.044,0,.088.007.132.022.042.073.03.112.03,0-.063,0-.127,0-.19l-.053-.03Zm.493-.012c-.051.057-.022.135,0,.2h.095a.274.274,0,0,0,.045-.233C582.068,130.883,582,130.863,581.975,130.912Zm.283.152.127-.007a1.366,1.366,0,0,0,0-.194A.153.153,0,0,0,582.258,131.064Zm-.987-.124c0,.044,0,.089,0,.133l.094,0c0-.032,0-.063,0-.095l-.039-.036Zm.486.011q0,.064,0,.127l.115,0a.306.306,0,0,0-.057-.13Zm1.707-.054a.267.267,0,0,0,.03.236c.044-.022.1-.036.119-.088s-.014-.1-.036-.148Zm-2.384.181c0,.033,0,.066.005.1a.491.491,0,0,0,.114.084l.02-.061c.011-.055-.047-.085-.074-.124Zm1.41.05c.063.087.061.205.131.288a.751.751,0,0,0,.106.006c0-.071,0-.142-.007-.213-.049-.048-.119-.073-.162-.129Zm-.928.144.056.032.049-.029c0-.031,0-.062,0-.094l-.056-.054A.421.421,0,0,0,581.563,131.273Zm2.183-.107q0,.056,0,.112l.113.04c0-.04,0-.08,0-.119l-.041-.037Zm-3.153.148c0,.04,0,.079,0,.119l.127,0c0-.053-.017-.105-.026-.158C580.663,131.287,580.628,131.3,580.593,131.314Zm1.224-.064,0,.122c.035,0,.07,0,.105-.01.044-.023.027-.077.034-.116Zm1.022.066.008.059a.612.612,0,0,0,.106,0c.04-.026.015-.08.019-.118A.583.583,0,0,0,582.84,131.316Zm.635-.05a.093.093,0,0,0,.07.113c.044,0,.065-.041.093-.066l-.035-.054C583.561,131.261,583.518,131.261,583.475,131.266Zm.831-.028a.475.475,0,0,1-.157.181c0,.058,0,.116.007.174.053,0,.105,0,.158,0,0-.06,0-.121-.008-.181.06-.044.152-.083.136-.173Zm-1.2.093c0,.039.005.078.008.117l.07.044a.649.649,0,0,0,.056-.083.657.657,0,0,0-.015-.081C583.187,131.33,583.148,131.332,583.108,131.332Zm-2.339.1a.207.207,0,0,0,.028.145l.094-.053A.184.184,0,0,0,580.769,131.43Zm1.63.071c0,.047,0,.095,0,.143l.143-.006q0-.046-.006-.091a.817.817,0,0,0-.089-.07Zm.544.123.093-.005c-.01-.03-.018-.061-.026-.092A.082.082,0,0,0,582.944,131.624Zm-.224-.093-.034.057c.019.03.032.076.078.064.064.005.05-.076.04-.116Zm.4.075c0,.049,0,.1,0,.147.038,0,.085,0,.107-.04a.817.817,0,0,0,0-.113Zm.254.014c-.03.029-.024.07-.026.108l.131-.005q0-.056,0-.112A.7.7,0,0,0,583.377,131.621Zm-1.912.241c.012.031.025.062.035.093l.087,0c0-.032,0-.064,0-.1l-.06-.053Zm.943-.108c0,.046,0,.092,0,.139a.349.349,0,0,0,.14-.024c0-.031,0-.062-.007-.093C582.51,131.737,582.454,131.759,582.408,131.753Zm.968.094c0,.063,0,.125.007.188l.086,0a.487.487,0,0,0,.017-.185Zm-.215,0a.542.542,0,0,0,.008.09c.017.011.036.022.054.032l.041-.077-.026-.049Zm-1.929.193c-.054.053,0,.127.021.182l.089,0c0-.056,0-.112,0-.168C581.3,132.049,581.26,132.008,581.232,132.045Zm1.686-.078,0,.08.054.05.076-.082A.2.2,0,0,0,582.918,131.967Zm-.116.023c-.052.041-.091.126-.029.175.026.035.073.021.11.026,0-.066,0-.132,0-.2Zm-.1.313a.519.519,0,0,0,.017.2l.1-.052a.789.789,0,0,0-.006-.093A.131.131,0,0,0,582.7,132.3Zm.423.051c-.014.054.035.086.062.125.007.063-.057.145,0,.2.035.04.078-.008.114-.024a.384.384,0,0,0-.091-.14l-.015-.031a.222.222,0,0,0,.051-.19C583.2,132.307,583.147,132.308,583.121,132.353Zm.243-.069c0,.021,0,.062,0,.082h.082c0-.021,0-.063,0-.084Zm-.766.333a.36.36,0,0,1,.027.328.447.447,0,0,0-.019.244h.1a.373.373,0,0,0-.024-.31l.08-.072a.572.572,0,0,0-.026-.215A.483.483,0,0,0,582.6,132.618Zm-2.27.266c.011.091-.059.154-.087.232a2.476,2.476,0,0,0-.016.358,1.543,1.543,0,0,1,.023.367c-.022.077.007.162-.036.234a.407.407,0,0,0-.031.171c-.031.082-.081.155-.109.238a.37.37,0,0,0,.009.324l.079-.031c-.018-.18.109-.326.156-.49a2.759,2.759,0,0,0,.032-.425.347.347,0,0,1,.062-.236.281.281,0,0,1,.229.032.474.474,0,0,0,.034-.133l-.087-.025a.592.592,0,0,0-.026-.208.6.6,0,0,0-.074-.044c-.051.09-.041.2-.1.289a.315.315,0,0,1-.021-.332.365.365,0,0,0,.053-.229C580.427,132.922,580.368,132.9,580.328,132.884Zm4.715-.117c-.024.047-.042.1-.067.143s-.091.049-.123.088a1.792,1.792,0,0,0-.04.186c-.03.042-.09.068-.093.125a1.629,1.629,0,0,1-.062.242.288.288,0,0,1,.037.206,1.184,1.184,0,0,1-.123.124,1.25,1.25,0,0,0-.069.15l-.039-.069c.012-.055.061-.114.03-.17-.01-.023-.022-.045-.033-.068h-.092a1.1,1.1,0,0,1-.01.311l.021.032.115,0a.925.925,0,0,0,.006.122.508.508,0,0,0,.139.118.618.618,0,0,1-.052.215,1.489,1.489,0,0,0,0,.171c0,.1.066.185.064.285s.063.2-.013.285a.215.215,0,0,0-.172-.083.345.345,0,0,0-.006.187c.025.084.127.13.113.227-.065,0-.1-.061-.138-.1h-.077c.008.088-.03.175-.005.261s.042.182.067.272c.012.03,0,.06-.01.09-.034,0-.075,0-.1-.03,0-.051,0-.1-.006-.153a.825.825,0,0,1-.081-.194.964.964,0,0,0-.086-.208c-.024-.042-.006-.1-.048-.132a.922.922,0,0,1-.181-.157c-.026-.08.025-.156.045-.231.033-.091,0-.19.034-.281h.115a3.077,3.077,0,0,0,.038.584c.008.056.069.074.111.1a.655.655,0,0,0,.033-.3.345.345,0,0,0,.2-.084.359.359,0,0,0-.065-.178c-.059.025-.118.051-.179.071-.01-.077.055-.126.077-.193.007-.108-.01-.217-.008-.325a.538.538,0,0,0-.122-.326c-.035-.077.033-.127.088-.166a.9.9,0,0,1,.012-.218c.009-.141-.018-.281-.008-.422-.034-.018-.067-.036-.1-.055a.5.5,0,0,0-.027.116c.005.132-.155.18-.188.3,0,.055,0,.109,0,.164a.925.925,0,0,0-.11.039c-.021.049-.034.1-.056.151a.452.452,0,0,0-.011.224,2.927,2.927,0,0,1,0,.519c-.024.077-.08.14-.106.216,0,.081.057.147.061.226s0,.146.009.218c.007.054-.044.1-.037.15a1.873,1.873,0,0,0-.006.271.661.661,0,0,0,.072.124l.118,0a2.845,2.845,0,0,0,.007-.5.628.628,0,0,1,.068,0,1,1,0,0,1,.033.278,3.479,3.479,0,0,1,0,.521c-.012.113.082.189.161.252a.2.2,0,0,0,.158-.021c.074-.052.168-.061.243-.112-.007-.21-.007-.421-.023-.631.08,0,.171.021.234-.044a4.225,4.225,0,0,0,0-.66c.008-.1-.069-.193-.051-.3l.1-.005a.926.926,0,0,1,.027.242,2.286,2.286,0,0,1,.049.35c.011.108-.018.213-.013.321a.478.478,0,0,1-.178.205c-.027.017-.021.053-.026.08l.1,0c.077-.1.179-.18.258-.279a1.332,1.332,0,0,0,.09-.4c0-.051-.025-.1-.024-.151s-.044-.114-.06-.173c-.01-.121,0-.243-.017-.364a.655.655,0,0,1-.021-.192.544.544,0,0,1,.015-.209.61.61,0,0,1,.07-.107.69.69,0,0,0,.048-.125c.031-.047.089-.084.087-.147a3.071,3.071,0,0,0,0-.381.667.667,0,0,0-.062-.361c-.048-.081-.062-.176-.11-.257Zm-2.734.184a.766.766,0,0,0-.053.09.338.338,0,0,0,.021.148.852.852,0,0,0,.085-.014.736.736,0,0,0,.064-.138c-.006-.03-.016-.059-.024-.088Zm.537.006a3.12,3.12,0,0,0,.027.424l.088,0a.665.665,0,0,0-.015-.427Zm-1.828.167c.016.04.022.088.06.114a.621.621,0,0,0,.169.108c.033-.007.051-.047.076-.069a1.154,1.154,0,0,0-.184-.157A.715.715,0,0,0,581.017,133.124Zm2.067-.054c0,.083,0,.166,0,.249l.081,0c0-.086,0-.172-.007-.258Zm-1.366.149c0,.075.007.151.009.226a.657.657,0,0,1,.134.019.428.428,0,0,0,.055.23l.081-.008a1.663,1.663,0,0,1,.011-.355.159.159,0,0,0-.037-.12A2.226,2.226,0,0,1,581.717,133.219Zm-.285.143a2.021,2.021,0,0,0,.013.226.537.537,0,0,0,.1,0,.422.422,0,0,0,.116-.13.66.66,0,0,0-.046-.159A.528.528,0,0,0,581.432,133.362Zm-.628.122c0,.035,0,.071,0,.107-.026.048-.062.089-.088.137-.006.054,0,.108,0,.162a.371.371,0,0,1-.256.178.721.721,0,0,0-.013.192,2.176,2.176,0,0,0,.047.26l.106,0c0-.119-.005-.238-.008-.357.075-.05.145-.126.244-.111a1.811,1.811,0,0,0,.075-.169c.01-.067-.014-.137.019-.2a.559.559,0,0,0,.032-.252A.173.173,0,0,0,580.8,133.484Zm-.833.041a.669.669,0,0,1,.063.155,1.144,1.144,0,0,1-.008.307,1.324,1.324,0,0,1,.023.145l.093-.005a.964.964,0,0,1,.011-.24,1.01,1.01,0,0,1,.016-.227.56.56,0,0,0-.13-.172Zm2.68-.12c-.087.16-.005.337.014.5-.064,0-.128,0-.192,0a.784.784,0,0,0-.035.239c.009.057-.035.1-.062.144a.743.743,0,0,1-.111-.1,2.808,2.808,0,0,0-.02-.284c-.016-.072-.006-.146-.023-.217a1.34,1.34,0,0,1-.016-.217l-.095,0a1.079,1.079,0,0,1,0,.139c-.019.068-.049.132-.064.2.012.072.041.14.059.211.011.086.005.173.011.259.048.027.094.058.143.086a.521.521,0,0,0,.121,0c.031.042.068.108.131.091.087-.014.113-.11.138-.181,0-.113,0-.226-.006-.339l.073.07a.7.7,0,0,0,.039-.234,1.77,1.77,0,0,0-.035-.375Zm.886.029c-.005.082.008.164,0,.245-.024.045-.079.028-.121.035-.021.059-.055.113-.08.171,0,.142.008.285.01.427a.472.472,0,0,0,.177.009c.026.133.034.269.051.4l.073,0,.052-.054c.008-.129-.033-.253-.029-.381-.04-.017-.079-.036-.117-.056,0-.107-.008-.213-.011-.32a.243.243,0,0,1,.027-.158.331.331,0,0,1,.079.179h.054a.5.5,0,0,0-.031-.427C583.648,133.453,583.585,133.447,583.537,133.433Zm-2.494.187a1.03,1.03,0,0,1-.126.408c-.005.093-.023.205.056.273.083-.008.167-.008.25-.012a.231.231,0,0,1,.049-.164.186.186,0,0,1,.012.186l.037-.005q.017-.069.036-.137l.1-.007c0,.049,0,.1,0,.149-.031.081-.078.155-.114.234a.943.943,0,0,0-.044.38c.047,0,.093,0,.14,0a.784.784,0,0,0,.014-.137c0-.072.05-.134.049-.206-.01-.167.153-.274.184-.429.01-.073-.033-.139-.03-.212a.247.247,0,0,0-.018-.114c-.015-.038-.06-.042-.094-.049-.047.1.01.211-.037.307-.014.039-.058.032-.091.027a.68.68,0,0,1,.013-.272.209.209,0,0,0-.03-.171c-.02-.036-.064-.033-.1-.039a.152.152,0,0,0,0,.194.333.333,0,0,1,.06.214l-.1,0c-.014-.053-.031-.1-.048-.156l-.072,0c0,.082,0,.164.005.246l-.068.06-.047-.043c0-.064,0-.127-.006-.191a.424.424,0,0,0,.087-.107.638.638,0,0,0,.019-.211Zm1.866.285c.031-.009.088.008.1-.036s0-.068,0-.1l-.079-.061A.432.432,0,0,0,582.909,133.905Zm-1.117-.078a.26.26,0,0,0-.018.076c0,.133.012.266.009.4s-.139.2-.161.317a.734.734,0,0,1-.059.316c-.022.046-.06.083-.084.128,0,.1,0,.2.007.294.029.05.111.028.134-.017a3.008,3.008,0,0,0,.15-.314l.07,0a.97.97,0,0,0,.105.212l.058,0c.036-.04.074-.077.108-.119s.035-.123.084-.165a.129.129,0,0,1,.161-.034c.075.044.065.143.112.207a1.415,1.415,0,0,0,.194.123.342.342,0,0,1,.137.166c.02.052.045.136.118.122.076-.035.114-.117.181-.164a.524.524,0,0,0,.145-.119c.049-.047.009-.121.039-.177a.637.637,0,0,1,.116-.206.125.125,0,0,0,.051-.1.346.346,0,0,0-.225-.354c0-.055,0-.11,0-.165-.047-.006-.108.013-.141-.031l-.075-.071a2.073,2.073,0,0,0-.169.155c-.075.1-.1.225-.185.32a.446.446,0,0,1-.192-.012.869.869,0,0,1-.138.081c-.04,0-.079,0-.119.005a.827.827,0,0,1-.094-.156c-.03-.057-.1-.073-.152-.1a.691.691,0,0,1,.026-.237.44.44,0,0,0-.06-.28A.289.289,0,0,0,581.793,133.827Zm-.813.607a1.7,1.7,0,0,0,.006.234l.139-.005c0-.052,0-.1,0-.155A.353.353,0,0,0,580.98,134.434Zm.175.058c0,.031,0,.061,0,.092l.1,0c0-.031,0-.062,0-.092l-.05-.027Zm-.859.1a.379.379,0,0,0-.056.229h.029c.035,0,.071,0,.106,0a.913.913,0,0,1-.014.2c.061.083.143.18.259.159,0,.019,0,.056,0,.075a.677.677,0,0,1-.109.053c-.037-.034-.072-.069-.107-.105l-.109.007a.578.578,0,0,1-.146.417,1.1,1.1,0,0,1,.086.232c.017.077.1.109.168.134.129,0,.2-.124.278-.21.019.024.057.042.052.078s-.049.084-.056.132a.436.436,0,0,0,.127.17l.119-.1a1.776,1.776,0,0,1,.058.185.2.2,0,0,0,.134-.074c.034-.045.1-.034.145-.024.063.039.114.1.194.106.022-.038.067-.076.051-.124-.02-.068-.018-.14-.044-.206-.043-.071-.146-.053-.192-.117-.033-.111.064-.2.051-.311,0-.068,0-.136-.006-.2H581.2c-.043.132.019.264.014.4a.379.379,0,0,1-.078.254c-.065-.016-.048-.09-.058-.139-.018-.093-.1-.153-.148-.229a.842.842,0,0,1-.188-.016c-.046.024-.073.071-.116.1-.1,0-.22.039-.3-.039l-.005-.079a.288.288,0,0,1,.134.026c.061.037.128-.008.177-.045a.8.8,0,0,0,.129-.307c.05-.018.109-.027.142-.074s.076-.082.06-.135a1.285,1.285,0,0,1-.027-.261l-.069,0a2.693,2.693,0,0,1-.107.409l-.086,0a3.01,3.01,0,0,0,.017-.336l-.055.007a1.4,1.4,0,0,1-.019.177H580.5q-.008-.1-.009-.19a1.094,1.094,0,0,1-.133-.007c0-.076,0-.152,0-.227Zm.869.358q0,.088,0,.176h.092a.456.456,0,0,0-.011-.182Zm-.194.2a.961.961,0,0,0-.086.2c.045.06.089.121.131.184l.107,0c.005-.04.031-.082.009-.12a.58.58,0,0,1-.076-.268A.6.6,0,0,0,580.971,135.149Zm2.624.011a.58.58,0,0,1-.057.21.368.368,0,0,0-.065.3c.022.091-.006.187.02.277.008.029.015.058.021.087a.314.314,0,0,1,.221.291c.009.075.089.053.142.051.016-.106.028-.257-.085-.313a.657.657,0,0,1-.171-.172,1.483,1.483,0,0,1-.024-.205.227.227,0,0,1,.018-.142.636.636,0,0,0,.085-.266C583.713,135.209,583.646,135.177,583.6,135.16Zm-1.445.107a.883.883,0,0,0-.1.323c-.007.067.066.1.1.147a1.256,1.256,0,0,1,.008.153c-.038-.009-.1.014-.111-.034a.287.287,0,0,0-.152-.123,1.3,1.3,0,0,1,.035-.216.763.763,0,0,0-.044-.128c-.022-.043-.07-.057-.11-.078a.547.547,0,0,0-.09.157c-.016.1.1.145.14.219,0,.044,0,.09.007.134.024.064.06.123.083.188.05-.01.1-.023.148-.033,0,.038,0,.077,0,.116-.033.046-.1.021-.145.031.024.023.047.047.07.072.114,0,.221-.043.335-.028a.524.524,0,0,0,.021-.177l-.122.071-.047-.027c0-.052,0-.1-.006-.154a1,1,0,0,0,.115-.081c0-.036,0-.073,0-.109-.038-.031-.107-.051-.1-.11a.207.207,0,0,1,.107-.186.709.709,0,0,0,.107.223c.01.073,0,.148.01.222a.579.579,0,0,1,.036.232.613.613,0,0,0,0,.187.267.267,0,0,0,.171-.04c0-.091,0-.183-.009-.274-.027-.053-.089-.093-.084-.158a.388.388,0,0,1,.045-.165.4.4,0,0,1,.115.256c0,.09.038.176.047.266,0,.068.1.087.139.046a1.664,1.664,0,0,1,.185-.15.286.286,0,0,1,.027-.183c.05-.092.16-.146.171-.258l.093-.034a.37.37,0,0,1,.115-.178c0-.053,0-.107,0-.16l-.057.006c-.007.044-.016.087-.021.131a2.446,2.446,0,0,0-.293.194.757.757,0,0,0-.152.224c-.035.056-.009.125-.021.187-.028.029-.066,0-.094-.013a1.952,1.952,0,0,0-.031-.352c-.026-.059-.086-.094-.114-.152-.016-.034-.031-.067-.048-.1a.425.425,0,0,1-.129-.013l-.076-.077c-.036.029-.073.058-.11.086C582.261,135.307,582.217,135.252,582.15,135.268Zm-.637.4a.672.672,0,0,0,.01.184.841.841,0,0,1,.084.164l.113,0a.673.673,0,0,0-.068-.35Zm1.755.089c-.06.1-.129.188-.188.286.03.04.06.082.089.123h.074a1.356,1.356,0,0,1,.109-.143,2.266,2.266,0,0,0,0-.27Zm.125.341q-.046.079-.1.156a.967.967,0,0,0,.292.115.329.329,0,0,0,.02-.154.771.771,0,0,0-.122-.11A.651.651,0,0,0,583.393,136.1Z" transform="translate(-575.065 -121.31)" fill="#fff"/><path d="M1090.541,736.319l.064,0c.054.065.013.157.037.233a.383.383,0,0,1-.011.289l-.062,0a.652.652,0,0,1-.014-.282C1090.571,736.476,1090.508,736.4,1090.541,736.319Z" transform="translate(-1080.61 -724.479)" fill="#fff"/><path d="M1080.365,744.4l.066,0c0,.134.016.269,0,.4a.746.746,0,0,1-.094.01.622.622,0,0,1,.021-.2A.656.656,0,0,0,1080.365,744.4Z" transform="translate(-1070.614 -732.408)" fill="#fff"/><path d="M1039.111,756.477h.1c0,.086.009.173,0,.259-.019.051-.046.1-.062.151s0,.092-.013.137a.291.291,0,0,1-.082.071.4.4,0,0,1-.046-.14c.02-.1.122-.181.108-.291C1039.119,756.6,1039.113,756.54,1039.111,756.477Z" transform="translate(-1030.086 -744.253)" fill="#fff"/><path d="M1078.444,768.181l.056-.052c.021.035.052.071.045.115s-.056.065-.093.084C1078.449,768.279,1078.447,768.23,1078.444,768.181Z" transform="translate(-1068.756 -755.68)" fill="#fff"/><path d="M1073.1,775.242l.07,0a.668.668,0,0,1,0,.144c-.05.052-.126.083-.152.156a1.012,1.012,0,0,0-.042.379l-.079.005c0-.111,0-.222-.005-.333-.036-.025-.073-.049-.107-.075,0-.027,0-.054.009-.081a.234.234,0,0,1,.089-.055l.051.121c.026-.035.058-.066.081-.1A1.106,1.106,0,0,1,1073.1,775.242Z" transform="translate(-1063.205 -762.656)" fill="#fff"/><path d="M1039.559,794.517h.074a.851.851,0,0,1-.057.314h-.094a.238.238,0,0,1,.018-.15A.45.45,0,0,0,1039.559,794.517Z" transform="translate(-1030.54 -781.561)" fill="#fff"/><path d="M956.522,852.12l.084-.065a.535.535,0,0,1,.026.135l-.079,0Z" transform="translate(-949.18 -837.991)" fill="#fff"/><path d="M875.277,869.074l.092-.005c-.005.086.025.181-.025.259l-.034.064A.694.694,0,0,1,875.277,869.074Z" transform="translate(-869.498 -854.677)" fill="#fff"/><path d="M899.268,885.506h.066l.026.051-.058.067A.861.861,0,0,1,899.268,885.506Z" transform="translate(-893.028 -870.797)" fill="#fff"/></g><path d="M771.673,191.6l.121,0,0,.083a.632.632,0,0,1-.119.026C771.676,191.674,771.675,191.639,771.673,191.6Z" transform="translate(-767.889 -190.248)" fill="#fff"/><path d="M1076.413,213.327l.114,0c0,.02,0,.061,0,.082a.439.439,0,0,1-.161-.013Z" transform="translate(-1066.719 -211.554)" fill="#fff"/><path d="M1151.423,216.33c.045,0,.09,0,.135.007,0,.023,0,.069,0,.092l-.133,0-.049-.05Z" transform="translate(-1140.283 -214.501)" fill="#fff"/><path d="M640.391,251.113c0-.034,0-.067,0-.1l.085.031c-.008.035-.017.069-.027.1Z" transform="translate(-639.133 -248.516)" fill="#fff"/><path d="M1022.278,241.948l.079,0c0,.033,0,.066,0,.1l-.08,0Q1022.279,242,1022.278,241.948Z" transform="translate(-1013.671 -239.624)" fill="#fff"/><path d="M1223.973,271.349c.039-.066.113-.059.179-.062,0,.027,0,.055,0,.082A.376.376,0,0,1,1223.973,271.349Z" transform="translate(-1211.484 -268.401)" fill="#fff"/><path d="M1211.107,277.692a.636.636,0,0,1,.143,0c.046.027.1.062.078.123a.188.188,0,0,1-.213.028A1.507,1.507,0,0,1,1211.107,277.692Z" transform="translate(-1198.865 -274.68)" fill="#fff"/><path d="M940.208,289.968c.03.009.073,0,.094.025,0,.033.006.067.009.1a.152.152,0,0,1-.131-.067Z" transform="translate(-933.152 -286.722)" fill="#fff"/><path d="M620.436,327.191a.055.055,0,0,1,.046-.067l.035,0c.046.083.068.176.106.262s0,.154-.008.229c-.044-.038-.1-.067-.125-.125A1.268,1.268,0,0,1,620.436,327.191Z" transform="translate(-619.562 -323.163)" fill="#fff"/><path d="M686.208,326.041a.309.309,0,0,1,.272-.039l-.042.06A.528.528,0,0,1,686.208,326.041Z" transform="translate(-684.069 -322.046)" fill="#fff"/><path d="M639.051,346.078a.444.444,0,0,1,.013-.165l.087.035a.266.266,0,0,1-.037.135Z" transform="translate(-637.818 -341.59)" fill="#fff"/><path d="M648.786,347.975c.028.023.058.045.084.07a.336.336,0,0,1,.01.114,1.335,1.335,0,0,1-.126-.105Z" transform="translate(-647.335 -343.613)" fill="#fff"/><path d="M633.336,361.318a.2.2,0,0,1,.162.076.23.23,0,0,1-.164.019C633.335,361.389,633.335,361.342,633.336,361.318Z" transform="translate(-632.213 -356.698)" fill="#fff"/><path d="M1060.177,356.866l.083,0c.044.055.091.106.133.163a.209.209,0,0,1,.027.148c-.035,0-.071,0-.106,0a.683.683,0,0,1-.041-.142c-.008-.048-.054-.071-.088-.1Z" transform="translate(-1050.84 -352.331)" fill="#fff"/><path d="M1060.709,372.863c.04,0,.081,0,.122,0,0,.045,0,.09,0,.136l-.117,0Q1060.712,372.934,1060.709,372.863Z" transform="translate(-1051.362 -368.022)" fill="#fff"/><path d="M1154.854,377.132a.5.5,0,0,1,.12-.012.834.834,0,0,1-.081.138.6.6,0,0,1-.115.012A.161.161,0,0,1,1154.854,377.132Z" transform="translate(-1143.622 -372.197)" fill="#fff"/><path d="M1147.4,386.591a1.228,1.228,0,0,1,.054-.114h.086a.545.545,0,0,1-.063.173.511.511,0,0,1-.018.186l-.057-.053C1147.4,386.719,1147.395,386.655,1147.4,386.591Z" transform="translate(-1136.383 -381.374)" fill="#fff"/><path d="M1164.03,386.326c.032-.027.065-.053.1-.078a.394.394,0,0,1,.025.175l.084.05c0,.028,0,.057,0,.085a.24.24,0,0,1-.142.012c-.04-.018-.032-.064-.037-.1S1164.037,386.375,1164.03,386.326Z" transform="translate(-1152.695 -381.149)" fill="#fff"/><path d="M783.015,429.463h.086a.593.593,0,0,1,0,.1.585.585,0,0,1-.1.005C783,429.53,783.006,429.5,783.015,429.463Z" transform="translate(-778.992 -423.531)" fill="#fff"/><path d="M800.54,443.826l.05-.075.053.045c0,.033,0,.067,0,.1h-.075Z" transform="translate(-796.2 -437.545)" fill="#fff"/><path d="M812.9,464.6l.09-.006c.009.034.015.069.021.1-.036,0-.081.009-.1-.03Z" transform="translate(-808.326 -457.99)" fill="#fff"/><path d="M617.342,506.684a1.043,1.043,0,0,1,.12-.033.913.913,0,0,1,.023.22l-.055.024C617.406,506.823,617.333,506.764,617.342,506.684Z" transform="translate(-616.527 -499.235)" fill="#fff"/><path d="M812.53,506.609l.111,0,.045.042,0,.115A.246.246,0,0,1,812.53,506.609Z" transform="translate(-807.96 -499.189)" fill="#fff"/></g><g transform="translate(2.966 17.63)"><path d="M136.068,77.322a.145.145,0,0,0,0,.047c0,.481,0,.962,0,1.443.011.013.031.012.041.026a.386.386,0,0,0,.091.08c.037.026.069.058.106.084a.856.856,0,0,0,.26.122q.042.011.084.019a1,1,0,0,0,.184.014.1.1,0,0,0,0-.034q0-.245,0-.489c0-.139,0-.278,0-.416a.2.2,0,0,1,.016-.1.1.1,0,0,1,.088-.054.22.22,0,0,1,.124.057,2.367,2.367,0,0,0,.3.177l.152.077a1.076,1.076,0,0,1,.141.071.061.061,0,0,0,.05.008c.005-.113,0-.226,0-.34a.822.822,0,0,0,0-.108c-.04-.037-.078-.076-.116-.114a.612.612,0,0,0-.251-.133,1.317,1.317,0,0,0-.176-.034l-.141-.02c-.082-.012-.163-.023-.243-.042a1.574,1.574,0,0,1-.359-.134,1.945,1.945,0,0,1-.169-.1l-.078-.053a.487.487,0,0,1-.068-.044C136.093,77.325,136.083,77.313,136.068,77.322Z" transform="translate(-136.065 -77.319)" fill="#fff"/><path d="M900.729,79.924a1.9,1.9,0,0,1-.758.345c-.081.015-.164.023-.246.034a.15.15,0,0,0-.03.006l-.022.009a.17.17,0,0,1-.032.007l-.092.016c-.023,0-.046.01-.069.017a.774.774,0,0,0-.326.221c-.008.009-.02.018-.018.031,0,.128,0,.256,0,.385l.012.012c.088-.041.177-.086.265-.13a.888.888,0,0,1,.136-.073c.073-.04.142-.085.212-.131a.237.237,0,0,1,.061-.033.121.121,0,0,1,.116.028c.041.039.034.088.035.14,0,.027,0,.054,0,.081q0,.089,0,.178,0,.178,0,.357c0,.107,0,.215,0,.322a.079.079,0,0,0,.039,0,2.144,2.144,0,0,0,.334-.061,1.308,1.308,0,0,0,.323-.2.337.337,0,0,0,.063-.062c.052-.071.029-.171.03-.253,0-.116,0-.232,0-.348v-.7c0-.072,0-.145,0-.217C900.751,79.907,900.74,79.919,900.729,79.924Z" transform="translate(-892.168 -79.886)" fill="#fff"/><path d="M3.685,2.526h0a7.8,7.8,0,0,1-1.008-.069,7.722,7.722,0,0,1-1.339-.292l-.058-.018a2.72,2.72,0,0,1-1.1-.539c-.02-.02-.04-.039-.06-.058S.08,1.509.059,1.487a.148.148,0,0,1-.053-.093L0,1.374C0,1.116,0,.854,0,.6V.56Q0,.3,0,.033s0,0,0,0S0,0,.014,0h0A.621.621,0,0,1,.161.087L.207.118c.092.051.186.1.28.147.188.093.383.178.579.252A6.674,6.674,0,0,0,2.251.844a6.658,6.658,0,0,0,1.172.1A6.762,6.762,0,0,0,5.3.681a6.854,6.854,0,0,0,.823-.3c.135-.059.268-.122.4-.187A1.221,1.221,0,0,0,6.639.124a.745.745,0,0,1,.2-.107.262.262,0,0,1,0,.056v0s0,.009,0,.014q0,.259,0,.517v0c0,.244,0,.5,0,.748,0,.026-.084.093-.131.13l-.025.02c-.064.055-.13.105-.192.152a4.34,4.34,0,0,1-.433.3A4.656,4.656,0,0,1,3.685,2.526Zm.2-1.039.043,0v.019c-.059.068-.115.139-.17.207-.038.047-.076.095-.115.141-.018.024-.037.047-.056.07a.981.981,0,0,0-.069.088v.008c0,.03,0,.06,0,.091,0,.006,0,.012,0,.018a.128.128,0,0,0,.013.069.054.054,0,0,0,.049.022.24.24,0,0,0,.044-.005h0a2.447,2.447,0,0,1,.344-.04l.109,0c.072,0,.145,0,.218-.012a.054.054,0,0,0,.04-.018.107.107,0,0,0,.005-.078c0-.008,0-.017,0-.025a.178.178,0,0,1,0-.02c0-.022,0-.047-.021-.056a.065.065,0,0,0-.026,0,.381.381,0,0,0-.062.008l-.032,0-.138.009L4,1.985c-.033,0-.067.007-.1.007l-.039,0c-.009-.012,0-.026.013-.035h0a3.694,3.694,0,0,0,.406-.51.4.4,0,0,0,0-.081.506.506,0,0,1,0-.064.031.031,0,0,0-.007-.024.023.023,0,0,0-.018-.009h0c-.1,0-.189.012-.268.019l-.056,0c-.126.011-.257.022-.386.027-.029.007-.025.036-.022.062a.181.181,0,0,1,0,.021.157.157,0,0,1,0,.04.088.088,0,0,0,.016.063H3.6a.624.624,0,0,0,.122-.01h.023c.024,0,.049,0,.073,0S3.864,1.487,3.888,1.487Zm-1.021.491h0a.34.34,0,0,1,.062.008l.032.005.137.014c.028,0,.044.019.043.043a.332.332,0,0,0,.017.094c.008.032.069.034.114.035l.035,0,.014,0a.382.382,0,0,0,.064.008c.025,0,.04-.006.044-.019a.09.09,0,0,0-.006-.04l0-.014c-.012-.062-.027-.124-.041-.184-.025-.11-.051-.22-.073-.313-.016-.067-.033-.135-.049-.2,0-.01,0-.022-.007-.036a.188.188,0,0,0-.037-.106.1.1,0,0,0-.05-.01H3.149a.161.161,0,0,1-.036,0,1,1,0,0,0-.176-.018c-.022.01-.025.034-.027.056a.416.416,0,0,0-.075.126c-.009.02-.017.038-.026.054l-.087.165-.017.032-.1.2-.027.053-.025.049L2.537,2a.194.194,0,0,0-.027.057.026.026,0,0,0,0,.022c.012.014.04.014.065.015H2.6l.143.017h.01a.024.024,0,0,0,.013,0A.034.034,0,0,0,2.781,2.1l.035-.082a.056.056,0,0,1,.024-.032A.063.063,0,0,1,2.867,1.978ZM4.79,1.166h0l-.069.019c-.04.01-.08.021-.119.035l-.019,0a.088.088,0,0,0-.06.023.1.1,0,0,0-.005.041c0,.006,0,.012,0,.015l0,.027h0l0,.028c0,.027,0,.055-.006.079v.008l0,.021c-.005.077-.012.156-.02.242,0,.033-.007.066-.011.1-.007.055-.014.111-.016.165,0,.02,0,.04,0,.06a.487.487,0,0,0,0,.126h.005a.135.135,0,0,0,.028,0,.134.134,0,0,1,.028,0h0a.249.249,0,0,1,.05-.014.219.219,0,0,0,.056-.018c.03,0,.076-.006.089-.043a.439.439,0,0,0,0-.06.376.376,0,0,1,0-.07l.117-.03c.047-.012.1-.025.144-.036h.019a.033.033,0,0,1,.018,0,.089.089,0,0,1,.007.018.071.071,0,0,0,.009.022l0,0a.155.155,0,0,1,.034.04l0,.007c.008.013.016.027.03.027l.009,0c.042-.014.086-.025.128-.035L5.3,1.943h.012c.011,0,.022,0,.027-.012s-.012-.032-.026-.047A.144.144,0,0,1,5.3,1.865l-.051-.074h0l-.025-.035-.08-.114L5.1,1.584l-.009-.011c-.01-.012-.024-.028-.024-.036L4.951,1.37l-.03-.045a.737.737,0,0,0-.075-.1A.13.13,0,0,1,4.832,1.2C4.822,1.184,4.811,1.166,4.79,1.166ZM2.071,1.1a.468.468,0,0,0-.09.009.375.375,0,0,0-.141.057.424.424,0,0,0-.121.134.582.582,0,0,0-.049.483.267.267,0,0,0,.09.136.344.344,0,0,0,.043.025.874.874,0,0,0,.3.094l.049,0a.556.556,0,0,0,.2-.034L2.376,2a.163.163,0,0,0,.073-.037c.019-.08.037-.161.054-.24v0l.017-.08v0c0-.013.008-.028,0-.039l-.008,0a.441.441,0,0,0-.1-.019.158.158,0,0,0-.063-.017h0A.119.119,0,0,1,2.3,1.552a.131.131,0,0,0-.034-.008h0a.208.208,0,0,1-.056-.01h0a.206.206,0,0,0-.056-.011l-.017,0a.113.113,0,0,0-.027.081v.01l0,0a.113.113,0,0,0-.014.063c.006.015.022.025.049.029a.281.281,0,0,1,.063.012.359.359,0,0,0,.05.011.076.076,0,0,1-.006.063.07.07,0,0,1-.049.033.59.59,0,0,1-.1.011l-.037,0a.176.176,0,0,1-.119-.061.247.247,0,0,1-.035-.172.512.512,0,0,1,.032-.16.227.227,0,0,1,.106-.12.159.159,0,0,1,.07-.016.182.182,0,0,1,.169.137.183.183,0,0,0,.047.005h.05l.032,0a.3.3,0,0,0,.07.007c.021,0,.042,0,.062,0a.2.2,0,0,0-.009-.109.3.3,0,0,0-.159-.177A.791.791,0,0,0,2.083,1.1Zm1.006.712a.112.112,0,0,1-.029-.006A.125.125,0,0,0,3.02,1.8a.122.122,0,0,0-.052-.013c-.017,0-.031,0-.036-.012s0-.026.012-.052.038-.081.055-.122c0-.007.005-.015.008-.024a.11.11,0,0,1,.026-.055.025.025,0,0,1,.016-.006c.009.036.015.074.021.111s.008.054.014.081a.2.2,0,0,0,.006.036.109.109,0,0,1,0,.063A.04.04,0,0,1,3.077,1.816ZM4.729,1.74a.012.012,0,0,1-.009,0c-.007-.007-.006-.024-.006-.034v0a.543.543,0,0,0,.006-.122.534.534,0,0,1,.007-.123.01.01,0,0,1,.008-.005c.008,0,.017.012.019.021a.4.4,0,0,0,.046.08.547.547,0,0,1,.036.058.393.393,0,0,0,.03.048l.017.026a.015.015,0,0,1,0,.013.035.035,0,0,1-.024.012.768.768,0,0,0-.076.019l-.049.013Z" transform="translate(0.867 0.838)" fill="#fff" stroke="rgba(0,0,0,0)" stroke-miterlimit="10" stroke-width="1"/></g></g></g></svg>